<svg width="347" height="81" viewBox="0 0 347 81" fill="none" xmlns="http://www.w3.org/2000/svg">
<path d="M20.8212 12.2623C21.816 8.84783 24.9454 6.5 28.5019 6.5H326.204C330.227 6.5 333.624 9.48766 334.138 13.4778L340.822 65.3557C341.444 70.1828 337.647 74.4421 332.781 74.3773L14.5158 70.14C9.22826 70.0696 5.46252 64.98 6.94164 59.903L20.8212 12.2623Z" fill="#EF3830" stroke="#E7DBC1" stroke-width="12"/>
<path d="M22.2108 12.0422C23.2773 8.73873 26.3525 6.5 29.8239 6.5H326.204C330.227 6.5 333.624 9.48766 334.138 13.4778L340.822 65.3559C341.444 70.1829 337.648 74.4421 332.781 74.3774L14.3362 70.1441C8.95259 70.0725 5.1753 64.8107 6.8294 59.687L22.2108 12.0422Z" fill="#EF3830" stroke="#141414" stroke-width="4"/>
</svg>
