<svg width="16" height="10" viewBox="0 0 16 10" fill="none" xmlns="http://www.w3.org/2000/svg">
<path d="M15.6328 0.610387C15.8571 0.834982 15.9831 1.13943 15.9831 1.45686C15.9831 1.77429 15.8571 2.07874 15.6328 2.30334L8.84501 9.09111C8.62042 9.31542 8.31597 9.44142 7.99854 9.44142C7.68111 9.44142 7.37666 9.31542 7.15206 9.09111L0.364293 2.30334C0.139794 2.07884 0.0136719 1.77435 0.0136719 1.45686C0.0136719 1.29966 0.0446356 1.14399 0.104795 0.998753C0.164955 0.853515 0.253133 0.721547 0.364293 0.610387C0.475454 0.499226 0.607421 0.411049 0.752659 0.350889C0.897898 0.29073 1.05356 0.259766 1.21077 0.259766C1.52826 0.259766 1.83274 0.385888 2.05724 0.610387L7.99854 6.55008L13.9398 0.610387C14.1644 0.38607 14.4689 0.260074 14.7863 0.260074C15.1037 0.260074 15.4082 0.38607 15.6328 0.610387Z" fill="black"/>
</svg>
