<svg width="1342" height="368" viewBox="0 0 1342 368" fill="none" xmlns="http://www.w3.org/2000/svg">
<path d="M1288 212.504C1289.68 222.784 1300.85 241.785 1306.23 250H1335.5C1341.11 243.839 1340.23 194.196 1339.36 203.526C1338.65 210.99 1331.7 223.183 1328.31 228.347L1321.83 178L1313.77 228.347C1311.25 228.582 1302.58 225.742 1288 212.504Z" fill="#338A57" stroke="#0B0D0C" stroke-width="4"/>
<path d="M929 311.504C930.683 321.784 941.854 340.785 947.229 349H976.5C982.108 342.839 981.232 293.196 980.356 302.526C979.655 309.99 972.702 322.183 969.313 327.347L962.828 277L954.765 327.347C952.253 327.582 943.583 324.742 929 311.504Z" fill="#338A57" stroke="#0B0D0C" stroke-width="4"/>
<path d="M1183 34.5452C1184.65 44.5403 1195.61 63.013 1200.88 71H1229.59C1235.09 65.0098 1234.23 16.7457 1233.37 25.8166C1232.68 33.0733 1225.86 44.9283 1222.54 49.9487L1216.18 1L1208.27 49.9487C1205.81 50.1769 1197.3 47.4156 1183 34.5452Z" fill="#338A57" stroke="#0B0D0C" stroke-width="4"/>
<path d="M2.24494 224.297C0.0391762 238.857 13.2737 267.499 20.1668 280H59.0433C64.282 280 70.0721 252.148 65.1092 224.297C65.1092 235.548 55.1832 251.597 50.2203 258.215L31.4713 189C31.6551 203.707 31.9124 238.14 31.4713 258.215C19.3396 254.906 20.1668 244.703 2.24494 224.297Z" fill="#338A57" stroke="#0B0D0C" stroke-width="4"/>
<path d="M399.755 310.297C401.961 324.857 388.726 353.499 381.833 366H342.957C337.718 366 331.928 338.148 336.891 310.297C336.891 321.548 346.817 337.597 351.78 344.215L370.529 275C370.345 289.707 370.088 324.14 370.529 344.215C382.66 340.906 381.833 330.703 399.755 310.297Z" fill="#338A57" stroke="#0B0D0C" stroke-width="4"/>
<path d="M110.245 36.297C108.039 50.857 121.274 79.499 128.167 92H167.043C172.282 92 178.072 64.1485 173.109 36.297C173.109 47.5479 163.183 63.597 158.22 70.2152L139.471 1C139.655 15.7071 139.912 50.14 139.471 70.2152C127.34 66.9061 128.167 56.703 110.245 36.297Z" fill="#338A57" stroke="#0B0D0C" stroke-width="4"/>
</svg>
