<svg width="1746" height="764" viewBox="0 0 1746 764" fill="none" xmlns="http://www.w3.org/2000/svg">
<path d="M1742 756.956H1743.64L1743.49 755.319C1732.31 632.495 1708.33 447.502 1672.75 291.704C1654.96 213.815 1634.26 143.148 1610.77 91.181C1599.03 65.201 1586.56 43.8208 1573.36 28.5395C1560.17 13.2701 1546.11 3.93557 1531.19 2.39472C1494.91 -1.35095 1455.33 7.05565 1412.16 20.3365C1390.62 26.9641 1368.14 34.8207 1344.7 43.0131L1344.52 43.074C1321.01 51.2915 1296.52 59.8474 1270.98 67.8624C1168.86 99.9156 1050.12 123.273 911.308 81.3844C799.636 47.6866 668.331 48.9831 549.655 64.241C430.96 79.5013 324.754 108.746 263.204 131.062L2.49226 224.848L1.5 225.205V226.259V760V761.5H3C86.3082 761.5 181.318 760.876 269.377 760.298C300.159 760.096 330.091 759.899 358.377 759.737C412.984 759.424 461.454 759.237 498.064 759.384C516.37 759.458 531.704 759.614 543.354 759.88C555.044 760.146 562.931 760.52 566.412 761.015C571.015 761.668 583.446 762.064 601.575 762.283C619.761 762.502 643.808 762.541 671.745 762.462C727.622 762.303 799.088 761.666 870.416 761.029L871.128 761.023C942.22 760.389 1013.12 759.756 1068.27 759.597C1095.94 759.518 1119.64 759.557 1137.4 759.776C1155.24 759.996 1166.95 760.396 1170.76 761.01C1174.06 761.541 1182.18 761.858 1194.13 762.024C1206.13 762.191 1222.11 762.207 1241.23 762.112C1279.48 761.921 1330.29 761.284 1386.9 760.52C1398.93 760.358 1411.22 760.19 1423.72 760.019C1528.76 758.582 1647.74 756.956 1742 756.956Z" fill="#537CBC" stroke="#0B0D0C" stroke-width="3"/>
</svg>
