<svg width="17" height="4" viewBox="0 0 17 4" fill="none" xmlns="http://www.w3.org/2000/svg">
<path d="M13.1124 2.36958C13.1124 1.946 13.2807 1.53977 13.5802 1.24025C13.8797 0.940729 14.286 0.772461 14.7095 0.772461C15.1331 0.772461 15.5394 0.940729 15.8389 1.24025C16.1384 1.53977 16.3067 1.946 16.3067 2.36958C16.3067 2.79317 16.1384 3.1994 15.8389 3.49892C15.5394 3.79844 15.1331 3.96671 14.7095 3.96671C14.286 3.96671 13.8797 3.79844 13.5802 3.49892C13.2807 3.1994 13.1124 2.79317 13.1124 2.36958ZM6.72394 2.36958C6.72394 1.946 6.89221 1.53977 7.19172 1.24025C7.49124 0.940729 7.89748 0.772461 8.32106 0.772461C8.74464 0.772461 9.15088 0.940729 9.4504 1.24025C9.74992 1.53977 9.91818 1.946 9.91818 2.36958C9.91818 2.79317 9.74992 3.1994 9.4504 3.49892C9.15088 3.79844 8.74464 3.96671 8.32106 3.96671C7.89748 3.96671 7.49124 3.79844 7.19172 3.49892C6.89221 3.1994 6.72394 2.79317 6.72394 2.36958ZM0.335449 2.36958C0.335449 1.946 0.503717 1.53977 0.803236 1.24025C1.10275 0.940729 1.50899 0.772461 1.93257 0.772461C2.35615 0.772461 2.76239 0.940729 3.06191 1.24025C3.36143 1.53977 3.52969 1.946 3.52969 2.36958C3.52969 2.79317 3.36143 3.1994 3.06191 3.49892C2.76239 3.79844 2.35615 3.96671 1.93257 3.96671C1.50899 3.96671 1.10275 3.79844 0.803236 3.49892C0.503717 3.1994 0.335449 2.79317 0.335449 2.36958Z" fill="black"/>
</svg>
