<svg width="37" height="37" viewBox="0 0 37 37" fill="none" xmlns="http://www.w3.org/2000/svg">
<path fill-rule="evenodd" clip-rule="evenodd" d="M26.1765 6.62742C25.9525 6.55227 25.7138 6.532 25.4803 6.56832C25.2469 6.60463 25.0255 6.69647 24.835 6.83611C24.4444 7.11933 24.2148 7.57398 24.2148 8.05844V20.8273C23.2859 20.3751 22.2667 20.1387 21.2335 20.1357C18.2672 20.1357 15.271 22.1361 15.271 25.268C15.271 28.3998 18.2672 30.4003 21.2335 30.4003C24.1999 30.4003 27.1961 28.3998 27.1961 25.268V10.7252C27.9981 11.4705 28.6868 12.5423 28.6868 14.0971C28.6868 14.9318 29.3546 15.6071 30.1774 15.6071C31.0003 15.6071 31.6681 14.9318 31.6681 14.0971C31.6681 11.2574 30.243 9.35679 28.8955 8.22092C28.1618 7.60545 27.3397 7.10394 26.4568 6.73326L26.2093 6.63934L26.19 6.63189L26.1825 6.62891H26.1795L26.1765 6.62742ZM6.32707 8.05844C5.50424 8.05844 4.83643 8.73519 4.83643 9.56847C4.83643 10.4032 5.50424 11.0785 6.32707 11.0785H19.7429C20.5657 11.0785 21.2335 10.4032 21.2335 9.56847C21.2335 8.7337 20.5657 8.05993 19.7429 8.05993L6.32707 8.05844ZM6.32707 14.0971C5.50424 14.0971 4.83643 14.7738 4.83643 15.6071C4.83643 16.4418 5.50424 17.1171 6.32707 17.1171H19.7429C20.5657 17.1171 21.2335 16.4404 21.2335 15.6071C21.2335 14.7723 20.5657 14.0971 19.7429 14.0971H6.32707ZM6.32707 20.1342C5.50424 20.1342 4.83643 20.8109 4.83643 21.6457C4.83643 22.479 5.50424 23.1542 6.32707 23.1542H12.2897C13.1125 23.1542 13.7803 22.479 13.7803 21.6457C13.7803 20.8109 13.1125 20.1357 12.2897 20.1357L6.32707 20.1342Z" fill="#FF687A"/>
</svg>
