<svg width="37" height="37" viewBox="0 0 37 37" fill="none" xmlns="http://www.w3.org/2000/svg">
<path d="M4.74609 7.67236C4.74609 5.57353 7.09834 4.33331 8.83047 5.51987L24.4793 16.2436C24.8276 16.4823 25.1127 16.802 25.3102 17.1752C25.5076 17.5484 25.6116 17.964 25.613 18.3862C25.6145 18.8084 25.5135 19.2247 25.3186 19.5993C25.1237 19.9738 24.8408 20.2955 24.4942 20.5367L8.84388 31.4214C7.11622 32.6243 4.74609 31.3841 4.74609 29.2793V7.67236ZM31.5777 6.17724C31.5777 5.88074 31.46 5.59637 31.2503 5.38671C31.0406 5.17705 30.7563 5.05926 30.4598 5.05926C30.1633 5.05926 29.8789 5.17705 29.6692 5.38671C29.4596 5.59637 29.3418 5.88074 29.3418 6.17724V30.7729C29.3418 31.0694 29.4596 31.3538 29.6692 31.5635C29.8789 31.7731 30.1633 31.8909 30.4598 31.8909C30.7563 31.8909 31.0406 31.7731 31.2503 31.5635C31.46 31.3538 31.5777 31.0694 31.5777 30.7729V6.17724Z" fill="#FF687A"/>
</svg>
