<svg width="57" height="57" viewBox="0 0 57 57" fill="none" xmlns="http://www.w3.org/2000/svg">
<rect x="2.5554" y="2.5554" width="51.1079" height="51.1079" rx="25.554" fill="#FF687A"/>
<rect x="2.5554" y="2.5554" width="51.1079" height="51.1079" rx="25.554" stroke="#FFAFB9" stroke-width="5.11079"/>
<g clip-path="url(#clip0_381_86)">
<path fill-rule="evenodd" clip-rule="evenodd" d="M21.3684 20.4003C21.397 20.1585 21.4816 19.9266 21.6156 19.7232C21.7495 19.5199 21.9291 19.3506 22.1401 19.2289C22.351 19.1071 22.5875 19.0364 22.8306 19.0222C23.0737 19.008 23.3168 19.0508 23.5405 19.1471C24.6713 19.6305 27.2054 20.7794 30.4209 22.6352C33.6375 24.4922 35.9001 26.1138 36.8829 26.8495C37.7219 27.4788 37.724 28.7267 36.8839 29.3581C35.9107 30.0895 33.6758 31.6899 30.4209 33.5702C27.1628 35.4505 24.6585 36.5856 23.5384 37.0626C22.5737 37.4746 21.4941 36.8496 21.3684 35.8094C21.2215 34.5934 20.9468 31.8325 20.9468 28.1038C20.9468 24.3772 21.2204 21.6173 21.3684 20.4003Z" fill="white"/>
</g>
<defs>
<clipPath id="clip0_381_86">
<rect width="25.554" height="25.554" fill="white" transform="translate(15.3325 15.332)"/>
</clipPath>
</defs>
</svg>
