<svg width="37" height="37" viewBox="0 0 37 37" fill="none" xmlns="http://www.w3.org/2000/svg">
<path d="M32.2544 7.67236C32.2544 5.57353 29.9022 4.33331 28.17 5.51987L12.5212 16.2436C12.1729 16.4823 11.8878 16.802 11.6903 17.1752C11.4929 17.5484 11.3889 17.964 11.3875 18.3862C11.386 18.8084 11.487 19.2247 11.6819 19.5993C11.8768 19.9738 12.1597 20.2955 12.5063 20.5367L28.1566 31.4214C29.8843 32.6243 32.2544 31.3841 32.2544 29.2793V7.67236ZM5.42274 6.17724C5.42274 5.88074 5.54053 5.59637 5.75019 5.38671C5.95985 5.17705 6.24422 5.05926 6.54072 5.05926C6.83723 5.05926 7.1216 5.17705 7.33126 5.38671C7.54092 5.59637 7.65871 5.88074 7.65871 6.17724V30.7729C7.65871 31.0694 7.54092 31.3538 7.33126 31.5635C7.1216 31.7731 6.83723 31.8909 6.54072 31.8909C6.24422 31.8909 5.95985 31.7731 5.75019 31.5635C5.54053 31.3538 5.42274 31.0694 5.42274 30.7729V6.17724Z" fill="#FF687A"/>
</svg>
