<svg width="64" height="64" viewBox="0 0 64 64" fill="none" xmlns="http://www.w3.org/2000/svg">
<path d="M55.9947 26.6666C55.9627 20.8666 55.7067 17.7253 53.656 15.6773C51.3147 13.3333 47.5413 13.3333 40 13.3333H32C24.4587 13.3333 20.6853 13.3333 18.344 15.6773C16 18.0186 16 21.7919 16 29.3333V42.6666C16 50.2079 16 53.9813 18.344 56.3226C20.6853 58.6666 24.4587 58.6666 32 58.6666H40C47.5413 58.6666 51.3147 58.6666 53.656 56.3226C56 53.9813 56 50.2079 56 42.6666V39.9999" stroke="white" stroke-width="5" stroke-linecap="round"/>
<path d="M8 26.6666V42.6666C8 44.7883 8.84286 46.8232 10.3431 48.3234C11.8434 49.8237 13.8783 50.6666 16 50.6666M48 13.3333C48 11.2115 47.1571 9.17669 45.6569 7.6764C44.1566 6.17611 42.1217 5.33325 40 5.33325H29.3333C19.2773 5.33325 14.248 5.33325 11.1253 8.45859C9.38133 10.1999 8.61067 12.5333 8.272 15.9999" stroke="white" stroke-width="5" stroke-linecap="round"/>
</svg>
