<svg width="717" height="160" viewBox="0 0 717 160" fill="none" xmlns="http://www.w3.org/2000/svg">
<mask id="path-1-outside-1_355_199" maskUnits="userSpaceOnUse" x="0.109655" y="76.8119" width="73.5755" height="77.1358" fill="black">
<rect fill="white" x="0.109655" y="76.8119" width="73.5755" height="77.1358"/>
<path d="M34.4318 142.968C33.6649 143.389 32.8765 143.482 32.0667 143.246C31.2569 143.01 30.6415 142.508 30.2207 141.741L10.7948 106.342C10.3549 105.54 10.2624 104.752 10.5175 103.977C10.7534 103.167 11.2548 102.552 12.0217 102.131L21.4859 96.9375C24.4838 95.2924 27.4802 94.3058 30.4751 93.9776C33.4857 93.5955 36.4042 93.8308 39.2308 94.6836C42.0381 95.5016 44.609 96.8802 46.9432 98.8196C49.2774 100.759 51.2671 103.228 52.9122 106.225C54.5573 109.223 55.5805 112.245 55.9818 115.29C56.3639 118.301 56.1556 121.227 55.3568 124.07C54.5388 126.877 53.1698 129.465 51.2495 131.834C49.345 134.15 46.8938 136.13 43.896 137.775L34.4318 142.968ZM34.5109 136.666L41.2561 132.964C44.1843 131.357 46.4004 129.279 47.9044 126.731C49.4242 124.128 50.1882 121.305 50.1963 118.261C50.1853 115.183 49.3476 112.128 47.6834 109.095C46 106.027 43.8726 103.68 41.3011 102.052C38.7297 100.424 35.9476 99.5695 32.9549 99.4883C29.997 99.3879 27.0539 100.141 24.1258 101.748L17.3806 105.45L34.5109 136.666Z"/>
</mask>
<path d="M34.4318 142.968C33.6649 143.389 32.8765 143.482 32.0667 143.246C31.2569 143.01 30.6415 142.508 30.2207 141.741L10.7948 106.342C10.3549 105.54 10.2624 104.752 10.5175 103.977C10.7534 103.167 11.2548 102.552 12.0217 102.131L21.4859 96.9375C24.4838 95.2924 27.4802 94.3058 30.4751 93.9776C33.4857 93.5955 36.4042 93.8308 39.2308 94.6836C42.0381 95.5016 44.609 96.8802 46.9432 98.8196C49.2774 100.759 51.2671 103.228 52.9122 106.225C54.5573 109.223 55.5805 112.245 55.9818 115.29C56.3639 118.301 56.1556 121.227 55.3568 124.07C54.5388 126.877 53.1698 129.465 51.2495 131.834C49.345 134.15 46.8938 136.13 43.896 137.775L34.4318 142.968ZM34.5109 136.666L41.2561 132.964C44.1843 131.357 46.4004 129.279 47.9044 126.731C49.4242 124.128 50.1882 121.305 50.1963 118.261C50.1853 115.183 49.3476 112.128 47.6834 109.095C46 106.027 43.8726 103.68 41.3011 102.052C38.7297 100.424 35.9476 99.5695 32.9549 99.4883C29.997 99.3879 27.0539 100.141 24.1258 101.748L17.3806 105.45L34.5109 136.666Z" fill="#6DD8CE"/>
<path d="M32.0667 143.246L30.3288 149.211L30.3288 149.211L32.0667 143.246ZM10.5175 103.977L16.419 105.92L16.4524 105.818L16.4824 105.715L10.5175 103.977ZM30.4751 93.9776L31.1518 100.154L31.2046 100.148L31.2574 100.141L30.4751 93.9776ZM39.2308 94.6836L37.4361 100.632L37.4645 100.64L37.4929 100.649L39.2308 94.6836ZM46.9432 98.8196L50.9136 94.0408L46.9432 98.8196ZM55.9818 115.29L62.1453 114.508L62.1434 114.493L62.1415 114.479L55.9818 115.29ZM55.3568 124.07L61.3217 125.808L61.33 125.779L61.338 125.751L55.3568 124.07ZM51.2495 131.834L56.0476 135.782L56.0619 135.764L56.0761 135.747L51.2495 131.834ZM34.5109 136.666L29.0642 139.655L32.0532 145.101L37.4999 142.112L34.5109 136.666ZM47.9044 126.731L53.2553 129.888L53.2625 129.876L53.2698 129.863L47.9044 126.731ZM50.1963 118.261L56.4092 118.278L56.4092 118.258L56.4092 118.239L50.1963 118.261ZM41.3011 102.052L37.9781 107.301L37.9781 107.301L41.3011 102.052ZM32.9549 99.4883L32.7442 105.698L32.7652 105.698L32.7863 105.699L32.9549 99.4883ZM17.3806 105.45L14.3916 100.003L8.94492 102.992L11.9339 108.439L17.3806 105.45ZM31.4428 137.522C31.6891 137.387 32.0638 137.239 32.5417 137.183C33.0245 137.126 33.4618 137.181 33.8046 137.281L30.3288 149.211C32.7849 149.926 35.2691 149.596 37.4207 148.415L31.4428 137.522ZM33.8046 137.281C34.1474 137.381 34.5457 137.569 34.9225 137.876C35.2956 138.18 35.5323 138.506 35.6674 138.753L24.774 144.73C25.9547 146.882 27.8726 148.495 30.3288 149.211L33.8046 137.281ZM35.6674 138.753L16.2415 103.353L5.34813 109.331L24.774 144.73L35.6674 138.753ZM16.2415 103.353C16.3485 103.548 16.5061 103.914 16.5662 104.426C16.6282 104.955 16.5659 105.473 16.419 105.92L4.616 102.035C3.75456 104.652 4.19038 107.221 5.34813 109.331L16.2415 103.353ZM16.4824 105.715C16.3825 106.058 16.1939 106.456 15.8868 106.833C15.5829 107.206 15.257 107.443 15.0107 107.578L9.03279 96.6844C6.88115 97.8652 5.26817 99.7831 4.55257 102.239L16.4824 105.715ZM15.0107 107.578L24.4749 102.384L18.497 91.4908L9.03279 96.6844L15.0107 107.578ZM24.4749 102.384C26.8535 101.079 29.0703 100.382 31.1518 100.154L29.7984 87.8017C25.89 88.2299 22.1141 89.5059 18.497 91.4908L24.4749 102.384ZM31.2574 100.141C33.4282 99.8656 35.4676 100.038 37.4361 100.632L41.0254 88.7355C37.3409 87.6239 33.5432 87.3254 29.6927 87.8141L31.2574 100.141ZM37.4929 100.649C39.4516 101.219 41.2682 102.182 42.9728 103.598L50.9136 94.0408C47.9497 91.5783 44.6247 89.7839 40.9686 88.7187L37.4929 100.649ZM42.9728 103.598C44.6356 104.98 46.1484 106.814 47.4655 109.214L58.3589 103.236C56.3858 99.6408 53.9192 96.538 50.9136 94.0408L42.9728 103.598ZM47.4655 109.214C48.7819 111.613 49.5322 113.902 49.8221 116.102L62.1415 114.479C61.6288 110.588 60.3328 106.833 58.3589 103.236L47.4655 109.214ZM49.8183 116.073C50.0987 118.282 49.943 120.37 49.3756 122.389L61.338 125.751C62.3682 122.085 62.6291 118.32 62.1453 114.508L49.8183 116.073ZM49.3919 122.332C48.8149 124.312 47.8457 126.167 46.4229 127.922L56.0761 135.747C58.4938 132.764 60.2628 129.442 61.3217 125.808L49.3919 122.332ZM46.4515 127.887C45.1147 129.512 43.3086 131.01 40.907 132.328L46.8849 143.221C50.479 141.249 53.5753 138.787 56.0476 135.782L46.4515 127.887ZM40.907 132.328L31.4428 137.522L37.4207 148.415L46.8849 143.221L40.907 132.328ZM37.4999 142.112L44.2451 138.411L38.2672 127.518L31.522 131.219L37.4999 142.112ZM44.2451 138.411C48.0233 136.338 51.1137 133.517 53.2553 129.888L42.5536 123.573C41.6871 125.042 40.3453 126.377 38.2672 127.518L44.2451 138.411ZM53.2698 129.863C55.3474 126.305 56.3982 122.405 56.4092 118.278L43.9834 118.245C43.9781 120.204 43.501 121.95 42.5391 123.598L53.2698 129.863ZM56.4092 118.239C56.394 114 55.2306 109.934 53.1301 106.106L42.2367 112.084C43.4646 114.321 43.9765 116.366 43.9834 118.283L56.4092 118.239ZM53.1301 106.106C51.0178 102.257 48.2085 99.0712 44.6242 96.8022L37.9781 107.301C39.5367 108.288 40.9822 109.798 42.2367 112.084L53.1301 106.106ZM44.6242 96.8022C41.1235 94.5862 37.2543 93.3898 33.1234 93.2777L32.7863 105.699C34.6409 105.749 36.3359 106.262 37.9781 107.301L44.6242 96.8022ZM33.1655 93.2789C28.9539 93.136 24.915 94.228 21.1368 96.3014L27.1148 107.195C29.1929 106.054 31.04 105.64 32.7442 105.698L33.1655 93.2789ZM21.1368 96.3014L14.3916 100.003L20.3696 110.896L27.1148 107.195L21.1368 96.3014ZM11.9339 108.439L29.0642 139.655L39.9576 133.677L22.8273 102.461L11.9339 108.439Z" fill="#0B0D0C" mask="url(#path-1-outside-1_355_199)"/>
<mask id="path-3-outside-2_355_199" maskUnits="userSpaceOnUse" x="57.1535" y="48.8513" width="73.1542" height="76.3321" fill="black">
<rect fill="white" x="57.1535" y="48.8513" width="73.1542" height="76.3321"/>
<path d="M87.1775 114.787C86.1527 115.222 85.1793 115.117 84.2574 114.472C83.3354 113.826 82.8842 112.916 82.9039 111.742L82.6901 68.3532C82.6952 66.8391 83.32 65.8179 84.5644 65.2895C85.882 64.7301 87.0507 64.9899 88.0704 66.0689L119.24 96.4437C120.078 97.2975 120.401 98.2619 120.209 99.3368C120.038 100.36 119.423 101.096 118.361 101.547C117.812 101.78 117.219 101.859 116.582 101.784C115.967 101.656 115.433 101.365 114.98 100.909L87.0058 72.871L88.543 72.2184L89.0668 111.911C89.0593 112.606 88.8615 113.208 88.4734 113.718C88.1219 114.213 87.6899 114.569 87.1775 114.787ZM86.078 104.109L86.2694 98.4547L107.79 89.3173L111.991 93.1064L86.078 104.109Z"/>
</mask>
<path d="M87.1775 114.787C86.1527 115.222 85.1793 115.117 84.2574 114.472C83.3354 113.826 82.8842 112.916 82.9039 111.742L82.6901 68.3532C82.6952 66.8391 83.32 65.8179 84.5644 65.2895C85.882 64.7301 87.0507 64.9899 88.0704 66.0689L119.24 96.4437C120.078 97.2975 120.401 98.2619 120.209 99.3368C120.038 100.36 119.423 101.096 118.361 101.547C117.812 101.78 117.219 101.859 116.582 101.784C115.967 101.656 115.433 101.365 114.98 100.909L87.0058 72.871L88.543 72.2184L89.0668 111.911C89.0593 112.606 88.8615 113.208 88.4734 113.718C88.1219 114.213 87.6899 114.569 87.1775 114.787ZM86.078 104.109L86.2694 98.4547L107.79 89.3173L111.991 93.1064L86.078 104.109Z" fill="#6DD8CE"/>
<path d="M84.2574 114.472L80.6947 119.562L84.2574 114.472ZM82.9039 111.742L89.1159 111.845L89.1171 111.778L89.1167 111.711L82.9039 111.742ZM82.6901 68.3532L76.4772 68.3322L76.4771 68.358L76.4773 68.3838L82.6901 68.3532ZM88.0704 66.0689L83.5548 70.3362L83.6427 70.4292L83.7343 70.5184L88.0704 66.0689ZM119.24 96.4437L123.675 92.0926L123.626 92.0428L123.576 91.9941L119.24 96.4437ZM120.209 99.3368L114.092 98.2466L114.086 98.2808L114.081 98.315L120.209 99.3368ZM116.582 101.784L115.324 107.868L115.587 107.922L115.853 107.954L116.582 101.784ZM114.98 100.909L119.388 96.5306L119.378 96.5208L114.98 100.909ZM87.0058 72.871L84.5777 67.1522L76.1104 70.7472L82.6076 77.2592L87.0058 72.871ZM88.543 72.2184L94.7554 72.1364L94.6333 62.8828L86.1149 66.4995L88.543 72.2184ZM89.0668 111.911L95.2794 111.979L95.2802 111.904L95.2792 111.829L89.0668 111.911ZM88.4734 113.718L83.5279 109.958L83.4667 110.038L83.4082 110.12L88.4734 113.718ZM86.078 104.109L79.8686 103.898L79.539 113.635L88.5061 109.827L86.078 104.109ZM86.2694 98.4547L83.8413 92.7359L80.1941 94.2844L80.06 98.2445L86.2694 98.4547ZM107.79 89.3173L111.952 84.7039L109.01 82.0499L105.362 83.5985L107.79 89.3173ZM111.991 93.1064L114.419 98.8252L123.386 95.0179L116.152 88.493L111.991 93.1064ZM84.7494 109.068C85.0769 108.929 85.6411 108.781 86.3458 108.857C87.0472 108.933 87.5524 109.194 87.82 109.382L80.6947 119.562C83.3485 121.419 86.5832 121.789 89.6056 120.506L84.7494 109.068ZM87.82 109.382C88.1176 109.59 88.5089 109.971 88.7939 110.545C89.0736 111.11 89.1201 111.596 89.1159 111.845L76.6918 111.638C76.6395 114.768 77.9947 117.672 80.6947 119.562L87.82 109.382ZM89.1167 111.711L88.903 68.3226L76.4773 68.3838L76.691 111.772L89.1167 111.711ZM88.903 68.3742C88.9027 68.4566 88.8815 69.0088 88.4623 69.694C88.0133 70.4279 87.4018 70.8346 86.9925 71.0083L82.1363 59.5707C80.4826 60.2728 78.9365 61.4542 77.8627 63.2094C76.8187 64.9159 76.4826 66.7357 76.4772 68.3322L88.903 68.3742ZM86.9925 71.0083C86.6982 71.1333 85.9923 71.3323 85.0809 71.1297C84.1908 70.9318 83.6916 70.481 83.5548 70.3362L92.5859 61.8015C91.4294 60.5777 89.8361 59.4575 87.7773 58.9999C85.6973 58.5375 83.7483 58.8863 82.1363 59.5707L86.9925 71.0083ZM83.7343 70.5184L114.904 100.893L123.576 91.9941L92.4065 61.6193L83.7343 70.5184ZM114.805 100.795C114.68 100.667 114.405 100.335 114.219 99.7808C114.026 99.2047 114.02 98.6557 114.092 98.2466L126.326 100.427C126.907 97.1623 125.763 94.2214 123.675 92.0926L114.805 100.795ZM114.081 98.315C114.162 97.825 114.395 97.2191 114.853 96.6712C115.291 96.1476 115.738 95.9108 115.933 95.8281L120.789 107.266C123.546 106.095 125.773 103.741 126.337 100.359L114.081 98.315ZM115.933 95.8281C116.454 95.6071 116.958 95.5719 117.312 95.6137L115.853 107.954C117.481 108.146 119.171 107.953 120.789 107.266L115.933 95.8281ZM117.841 95.6997C118.114 95.7561 118.408 95.8584 118.697 96.0161C118.985 96.1732 119.215 96.3567 119.388 96.5307L110.572 105.287C111.864 106.588 113.486 107.488 115.324 107.868L117.841 95.6997ZM119.378 96.5208L91.404 68.4828L82.6076 77.2592L110.582 105.297L119.378 96.5208ZM89.4339 78.5898L90.9711 77.9372L86.1149 66.4995L84.5777 67.1522L89.4339 78.5898ZM82.3306 72.3003L82.8545 111.993L95.2792 111.829L94.7554 72.1364L82.3306 72.3003ZM82.8543 111.844C82.8568 111.615 82.8926 111.303 83.01 110.945C83.1291 110.583 83.3085 110.246 83.5279 109.958L93.4189 117.479C94.6835 115.816 95.2586 113.891 95.2794 111.979L82.8543 111.844ZM83.4082 110.12C83.6603 109.766 84.1087 109.34 84.7494 109.068L89.6056 120.506C91.2712 119.799 92.5835 118.661 93.5385 117.316L83.4082 110.12ZM92.2874 104.319L92.4787 98.6649L80.06 98.2445L79.8686 103.898L92.2874 104.319ZM88.6975 104.174L110.219 95.0361L105.362 83.5985L83.8413 92.7359L88.6975 104.174ZM103.629 93.9307L107.83 97.7198L116.152 88.493L111.952 84.7039L103.629 93.9307ZM109.563 87.3875L83.6499 98.3897L88.5061 109.827L114.419 98.8252L109.563 87.3875Z" fill="#0B0D0C" mask="url(#path-3-outside-2_355_199)"/>
<mask id="path-5-outside-3_355_199" maskUnits="userSpaceOnUse" x="121.658" y="22.3155" width="82.7363" height="77.4692" fill="black">
<rect fill="white" x="121.658" y="22.3155" width="82.7363" height="77.4692"/>
<path d="M158.26 86.6143C157.576 86.8266 156.904 86.8065 156.242 86.5539C155.581 86.3013 155.024 85.8496 154.572 85.1989L131.306 50.7053C130.537 49.5702 130.249 48.577 130.443 47.7257C130.663 46.8247 131.266 46.2209 132.254 45.9143C132.899 45.7138 133.547 45.7208 134.196 45.9355C134.834 46.1121 135.385 46.5448 135.849 47.2335L156.608 78.8833L155.355 79.2725L153.897 42.0027C153.872 41.3859 154.067 40.8051 154.48 40.2602C154.894 39.7154 155.443 39.3368 156.126 39.1245C156.734 38.9358 157.356 38.9298 157.994 39.1064C158.658 39.2333 159.166 39.5959 159.519 40.1943L179.506 71.7716L178.367 72.1254L177.512 33.9813C177.491 32.5723 178.259 31.626 179.815 31.1425C180.879 30.8122 181.692 31.0177 182.255 31.7587C182.807 32.4618 183.102 33.4111 183.14 34.6067L183.491 76.155C183.449 76.9591 183.233 77.6715 182.843 78.2923C182.479 78.8633 181.955 79.255 181.272 79.4673C180.55 79.6913 179.853 79.6581 179.18 79.3675C178.544 79.0652 178.013 78.6266 177.584 78.0518L157.41 45.4708L158.777 45.0462L160.479 83.3021C160.437 84.1061 160.221 84.8186 159.831 85.4394C159.467 86.0104 158.943 86.402 158.26 86.6143Z"/>
</mask>
<path d="M158.26 86.6143C157.576 86.8266 156.904 86.8065 156.242 86.5539C155.581 86.3013 155.024 85.8496 154.572 85.1989L131.306 50.7053C130.537 49.5702 130.249 48.577 130.443 47.7257C130.663 46.8247 131.266 46.2209 132.254 45.9143C132.899 45.7138 133.547 45.7208 134.196 45.9355C134.834 46.1121 135.385 46.5448 135.849 47.2335L156.608 78.8833L155.355 79.2725L153.897 42.0027C153.872 41.3859 154.067 40.8051 154.48 40.2602C154.894 39.7154 155.443 39.3368 156.126 39.1245C156.734 38.9358 157.356 38.9298 157.994 39.1064C158.658 39.2333 159.166 39.5959 159.519 40.1943L179.506 71.7716L178.367 72.1254L177.512 33.9813C177.491 32.5723 178.259 31.626 179.815 31.1425C180.879 30.8122 181.692 31.0177 182.255 31.7587C182.807 32.4618 183.102 33.4111 183.14 34.6067L183.491 76.155C183.449 76.9591 183.233 77.6715 182.843 78.2923C182.479 78.8633 181.955 79.255 181.272 79.4673C180.55 79.6913 179.853 79.6581 179.18 79.3675C178.544 79.0652 178.013 78.6266 177.584 78.0518L157.41 45.4708L158.777 45.0462L160.479 83.3021C160.437 84.1061 160.221 84.8186 159.831 85.4394C159.467 86.0104 158.943 86.402 158.26 86.6143Z" fill="#6DD8CE"/>
<path d="M154.572 85.1989L149.422 88.6731L149.445 88.7082L149.469 88.7429L154.572 85.1989ZM131.306 50.7053L136.457 47.2311L136.45 47.221L131.306 50.7053ZM130.443 47.7257L124.407 46.2532L124.396 46.3004L124.385 46.3477L130.443 47.7257ZM134.196 45.9355L132.247 51.8347L132.392 51.8824L132.538 51.923L134.196 45.9355ZM135.849 47.2335L141.044 43.826L141.023 43.7946L141.002 43.7635L135.849 47.2335ZM156.608 78.8833L158.451 84.8166L166.326 82.3709L161.803 75.4758L156.608 78.8833ZM155.355 79.2725L149.147 79.5153L149.463 87.608L157.198 85.2058L155.355 79.2725ZM153.897 42.0027L160.105 41.7598L160.105 41.7509L153.897 42.0027ZM157.994 39.1064L156.336 45.0939L156.579 45.1615L156.828 45.2089L157.994 39.1064ZM159.519 40.1943L154.165 43.3471L154.216 43.433L154.269 43.5172L159.519 40.1943ZM179.506 71.7716L181.349 77.705L189.092 75.3L184.756 68.4487L179.506 71.7716ZM178.367 72.1254L172.155 72.2646L172.34 80.5029L180.21 78.0588L178.367 72.1254ZM177.512 33.9813L171.3 34.0751L171.3 34.0978L171.301 34.1205L177.512 33.9813ZM182.255 31.7587L177.309 35.5182L177.337 35.5559L177.367 35.593L182.255 31.7587ZM183.14 34.6067L189.352 34.5543L189.352 34.4812L189.349 34.4081L183.14 34.6067ZM183.491 76.155L189.695 76.477L189.705 76.2899L189.703 76.1026L183.491 76.155ZM182.843 78.2923L188.082 81.6314L188.093 81.6147L188.103 81.5979L182.843 78.2923ZM179.18 79.3675L176.509 84.9773L176.612 85.0264L176.717 85.0717L179.18 79.3675ZM177.584 78.0518L172.302 81.3226L172.443 81.5499L172.603 81.7643L177.584 78.0518ZM157.41 45.4708L155.567 39.5375L147.903 41.918L152.128 48.7416L157.41 45.4708ZM158.777 45.0462L164.984 44.7702L164.626 36.724L156.934 39.1129L158.777 45.0462ZM160.479 83.3021L166.683 83.6241L166.699 83.3251L166.685 83.026L160.479 83.3021ZM159.831 85.4394L165.07 88.7785L165.081 88.7618L165.091 88.745L159.831 85.4394ZM156.417 80.681C156.689 80.5964 157.035 80.5365 157.429 80.5483C157.823 80.5601 158.175 80.6412 158.459 80.7499L154.026 92.3579C156.003 93.1131 158.105 93.168 160.102 92.5477L156.417 80.681ZM158.459 80.7499C158.75 80.8611 159.018 81.018 159.244 81.2012C159.465 81.3806 159.602 81.5496 159.675 81.6549L149.469 88.7429C150.546 90.2931 152.06 91.6072 154.026 92.3579L158.459 80.7499ZM159.723 81.7246L136.457 47.2311L126.155 54.1796L149.422 88.6731L159.723 81.7246ZM136.45 47.221C136.319 47.0275 136.396 47.0866 136.481 47.3807C136.576 47.7084 136.678 48.3287 136.501 49.1038L124.385 46.3477C123.639 49.6274 124.968 52.4266 126.162 54.1897L136.45 47.221ZM136.479 49.1982C136.343 49.7542 136.026 50.4177 135.455 50.9894C134.908 51.536 134.365 51.7644 134.096 51.8476L130.411 39.9809C127.626 40.8458 125.212 42.9558 124.407 46.2532L136.479 49.1982ZM134.096 51.8476C133.828 51.931 133.507 51.9856 133.156 51.9818C132.805 51.9779 132.495 51.9167 132.247 51.8347L136.146 40.0362C134.282 39.4206 132.309 39.3914 130.411 39.9809L134.096 51.8476ZM132.538 51.923C131.413 51.6114 130.842 50.9212 130.695 50.7035L141.002 43.7635C139.928 42.1684 138.255 40.6129 135.855 39.948L132.538 51.923ZM130.653 50.641L151.413 82.2908L161.803 75.4758L141.044 43.826L130.653 50.641ZM154.765 72.95L153.512 73.3391L157.198 85.2058L158.451 84.8166L154.765 72.95ZM161.563 79.0297L160.105 41.7598L147.689 42.2455L149.147 79.5153L161.563 79.0297ZM160.105 41.7509C160.123 42.1905 160.06 42.6448 159.916 43.0759C159.775 43.4986 159.584 43.8125 159.428 44.0173L149.532 36.5031C148.346 38.0648 147.599 40.0375 147.689 42.2544L160.105 41.7509ZM159.428 44.0173C159.248 44.2554 159.013 44.4866 158.731 44.6813C158.451 44.8743 158.183 44.9913 157.969 45.0579L154.283 33.1912C152.424 33.7686 150.766 34.8774 149.532 36.5031L159.428 44.0173ZM157.969 45.0579C157.708 45.1389 157.415 45.1881 157.109 45.1911C156.804 45.194 156.541 45.1509 156.336 45.0939L159.652 33.1189C157.915 32.6377 156.076 32.6344 154.283 33.1912L157.969 45.0579ZM156.828 45.2089C156.354 45.1183 155.798 44.912 155.264 44.5309C154.734 44.1525 154.381 43.7133 154.165 43.3471L164.872 37.0415C163.641 34.9516 161.633 33.4765 159.16 33.0039L156.828 45.2089ZM154.269 43.5172L174.256 75.0945L184.756 68.4487L164.768 36.8714L154.269 43.5172ZM177.663 65.8383L176.524 66.1921L180.21 78.0588L181.349 77.705L177.663 65.8383ZM184.578 71.9862L183.723 33.8421L171.301 34.1205L172.155 72.2646L184.578 71.9862ZM183.724 33.8876C183.732 34.4002 183.572 35.297 182.896 36.1295C182.286 36.8814 181.664 37.0741 181.658 37.0758L177.973 25.2091C176.41 25.6944 174.625 26.602 173.247 28.3002C171.804 30.079 171.271 32.1534 171.3 34.0751L183.724 33.8876ZM181.658 37.0758C181.446 37.1418 180.71 37.3273 179.701 37.0726C178.592 36.7924 177.78 36.1383 177.309 35.5182L187.202 27.9992C186.167 26.6381 184.667 25.5108 182.744 25.0251C180.923 24.565 179.248 24.8129 177.973 25.2091L181.658 37.0758ZM177.367 35.593C176.866 34.9542 176.92 34.4886 176.93 34.8053L189.349 34.4081C189.283 32.3337 188.748 29.9695 187.144 27.9244L177.367 35.593ZM176.927 34.6592L177.278 76.2075L189.703 76.1026L189.352 34.5543L176.927 34.6592ZM177.286 75.833C177.289 75.7736 177.302 75.6525 177.351 75.4903C177.401 75.3252 177.478 75.1519 177.582 74.9866L188.103 81.5979C189.112 79.9933 189.604 78.2334 189.695 76.477L177.286 75.833ZM177.603 74.9532C177.81 74.6288 178.096 74.3082 178.456 74.0388C178.812 73.7725 179.158 73.6179 179.429 73.5339L183.114 85.4006C185.115 84.7794 186.881 83.5161 188.082 81.6314L177.603 74.9532ZM179.429 73.5339C179.703 73.4489 180.071 73.3839 180.503 73.4045C180.938 73.4252 181.327 73.5275 181.642 73.6633L176.717 85.0717C178.797 85.9693 181.024 86.05 183.114 85.4006L179.429 73.5339ZM181.85 73.7578C181.982 73.8207 182.123 73.9077 182.258 74.0188C182.392 74.1295 182.494 74.2425 182.566 74.3393L172.603 81.7643C173.623 83.1342 174.943 84.2316 176.509 84.9773L181.85 73.7578ZM182.867 74.781L162.692 42.2L152.128 48.7416L172.302 81.3226L182.867 74.781ZM159.253 51.4042L160.62 50.9796L156.934 39.1129L155.567 39.5375L159.253 51.4042ZM152.57 45.3223L154.272 83.5781L166.685 83.026L164.984 44.7702L152.57 45.3223ZM154.274 82.9801C154.277 82.9207 154.29 82.7996 154.34 82.6374C154.39 82.4723 154.466 82.2989 154.57 82.1337L165.091 88.745C166.1 87.1404 166.592 85.3805 166.683 83.6241L154.274 82.9801ZM154.591 82.1003C154.798 81.7759 155.084 81.4552 155.444 81.1859C155.8 80.9196 156.146 80.765 156.417 80.681L160.102 92.5477C162.103 91.9265 163.869 90.6632 165.07 88.7785L154.591 82.1003Z" fill="#0B0D0C" mask="url(#path-5-outside-3_355_199)"/>
<mask id="path-7-outside-4_355_199" maskUnits="userSpaceOnUse" x="188.591" y="10.8472" width="64.8802" height="69.5632" fill="black">
<rect fill="white" x="188.591" y="10.8472" width="64.8802" height="69.5632"/>
<path d="M209.072 71.5338C207.981 71.7558 207.048 71.4587 206.274 70.6425C205.499 69.8263 205.238 68.8446 205.492 67.6975L213.934 25.1379C214.241 23.6552 215.057 22.7791 216.382 22.5095C217.785 22.224 218.878 22.7116 219.662 23.9723L244.149 59.9526C244.799 60.9564 244.923 61.9658 244.521 62.9809C244.15 63.9491 243.4 64.5482 242.27 64.7782C241.685 64.8971 241.089 64.8562 240.48 64.6555C239.902 64.4079 239.436 64.0157 239.084 63.4788L217.263 30.4256L218.899 30.0925L211.497 69.0926C211.351 69.7716 211.037 70.3224 210.555 70.7451C210.112 71.1599 209.618 71.4228 209.072 71.5338ZM210.124 60.8507L211.439 55.3486L234.35 50.6862L237.711 55.2368L210.124 60.8507Z"/>
</mask>
<path d="M209.072 71.5338C207.981 71.7558 207.048 71.4587 206.274 70.6425C205.499 69.8263 205.238 68.8446 205.492 67.6975L213.934 25.1379C214.241 23.6552 215.057 22.7791 216.382 22.5095C217.785 22.224 218.878 22.7116 219.662 23.9723L244.149 59.9526C244.799 60.9564 244.923 61.9658 244.521 62.9809C244.15 63.9491 243.4 64.5482 242.27 64.7782C241.685 64.8971 241.089 64.8562 240.48 64.6555C239.902 64.4079 239.436 64.0157 239.084 63.4788L217.263 30.4256L218.899 30.0925L211.497 69.0926C211.351 69.7716 211.037 70.3224 210.555 70.7451C210.112 71.1599 209.618 71.4228 209.072 71.5338ZM210.124 60.8507L211.439 55.3486L234.35 50.6862L237.711 55.2368L210.124 60.8507Z" fill="#6DD8CE"/>
<path d="M206.274 70.6425L201.768 74.9199L206.274 70.6425ZM205.492 67.6975L211.558 69.0379L211.573 68.9723L211.586 68.9064L205.492 67.6975ZM213.934 25.1379L207.851 23.8784L207.845 23.9037L207.84 23.929L213.934 25.1379ZM219.662 23.9723L214.386 27.2535L214.454 27.3621L214.526 27.4678L219.662 23.9723ZM244.149 59.9526L249.362 56.5733L249.324 56.5147L249.285 56.4571L244.149 59.9526ZM244.521 62.9809L238.745 60.6929L238.732 60.7252L238.72 60.7576L244.521 62.9809ZM240.48 64.6555L238.033 70.3664L238.28 70.4721L238.535 70.5562L240.48 64.6555ZM239.084 63.4788L244.276 60.0674L244.269 60.0558L239.084 63.4788ZM217.263 30.4256L216.024 24.3374L207.01 26.1718L212.078 33.8486L217.263 30.4256ZM218.899 30.0925L225.003 31.251L226.729 22.159L217.66 24.0044L218.899 30.0925ZM211.497 69.0926L217.571 70.3978L217.587 70.3246L217.601 70.2511L211.497 69.0926ZM210.555 70.7451L206.459 66.0738L206.383 66.1404L206.309 66.2094L210.555 70.7451ZM210.124 60.8507L204.081 59.4065L201.817 68.8815L211.363 66.9388L210.124 60.8507ZM211.439 55.3486L210.2 49.2604L206.318 50.0506L205.396 53.9044L211.439 55.3486ZM234.35 50.6862L239.348 46.9953L236.994 43.8079L233.111 44.5981L234.35 50.6862ZM237.711 55.2368L238.95 61.325L248.496 59.3824L242.709 51.5459L237.711 55.2368ZM207.833 65.4457C208.182 65.3747 208.764 65.3424 209.44 65.5575C210.112 65.7716 210.555 66.1283 210.78 66.3652L201.768 74.9199C203.998 77.2693 207.094 78.2768 210.311 77.622L207.833 65.4457ZM210.78 66.3652C211.03 66.6287 211.337 67.0797 211.502 67.6998C211.664 68.3085 211.612 68.7947 211.558 69.0379L199.425 66.357C198.75 69.4139 199.499 72.5296 201.768 74.9199L210.78 66.3652ZM211.586 68.9064L220.029 26.3468L207.84 23.929L199.398 66.4885L211.586 68.9064ZM220.018 26.3974C220.002 26.4781 219.871 27.0149 219.323 27.6028C218.737 28.2325 218.057 28.509 217.621 28.5976L215.143 16.4213C213.383 16.7796 211.632 17.629 210.23 19.1348C208.866 20.5988 208.174 22.315 207.851 23.8784L220.018 26.3974ZM217.621 28.5976C217.308 28.6614 216.576 28.7156 215.724 28.3353C214.891 27.9639 214.492 27.4226 214.386 27.2535L224.938 20.6911C224.049 19.2613 222.711 17.8459 220.785 16.9869C218.839 16.119 216.859 16.0721 215.143 16.4213L217.621 28.5976ZM214.526 27.4678L239.012 63.4481L249.285 56.4571L224.799 20.4768L214.526 27.4678ZM238.935 63.3319C238.838 63.1821 238.635 62.802 238.563 62.2216C238.489 61.6186 238.592 61.0792 238.745 60.6929L250.298 65.2689C251.519 62.1858 250.984 59.0758 249.362 56.5733L238.935 63.3319ZM238.72 60.7576C238.898 60.2937 239.246 59.7463 239.804 59.3007C240.338 58.8749 240.824 58.7322 241.031 58.69L243.509 70.8663C246.443 70.2691 249.096 68.4062 250.323 65.2043L238.72 60.7576ZM241.031 58.69C241.585 58.5772 242.086 58.6433 242.425 58.7548L238.535 70.5562C240.091 71.0692 241.786 71.217 243.509 70.8663L241.031 58.69ZM242.926 58.9447C243.182 59.0544 243.45 59.2132 243.702 59.4253C243.952 59.6368 244.142 59.8624 244.276 60.0674L233.891 66.8902C234.898 68.4229 236.308 69.6274 238.033 70.3664L242.926 58.9447ZM244.269 60.0558L222.447 27.0025L212.078 33.8486L233.899 66.9018L244.269 60.0558ZM218.501 36.5137L220.138 36.1807L217.66 24.0044L216.024 24.3374L218.501 36.5137ZM212.795 28.934L205.393 67.9342L217.601 70.2511L225.003 31.251L212.795 28.934ZM205.423 67.7874C205.471 67.5641 205.568 67.2652 205.755 66.9383C205.944 66.6066 206.186 66.3127 206.459 66.0738L214.651 75.4164C216.222 74.0389 217.17 72.2673 217.571 70.3978L205.423 67.7874ZM206.309 66.2094C206.627 65.9119 207.151 65.5845 207.833 65.4457L210.311 77.622C212.084 77.2611 213.597 76.4079 214.801 75.2808L206.309 66.2094ZM216.167 62.2949L217.482 56.7928L205.396 53.9044L204.081 59.4065L216.167 62.2949ZM212.678 61.4367L235.589 56.7744L233.111 44.5981L210.2 49.2604L212.678 61.4367ZM229.352 54.3771L232.713 58.9278L242.709 51.5459L239.348 46.9953L229.352 54.3771ZM236.472 49.1487L208.885 54.7625L211.363 66.9388L238.95 61.325L236.472 49.1487Z" fill="#0B0D0C" mask="url(#path-7-outside-4_355_199)"/>
<mask id="path-9-outside-5_355_199" maskUnits="userSpaceOnUse" x="262.253" y="2.34833" width="52.776" height="64.4079" fill="black">
<rect fill="white" x="262.253" y="2.34833" width="52.776" height="64.4079"/>
<path d="M277.579 58.7827C276.709 58.8704 275.947 58.6474 275.294 58.1137C274.641 57.58 274.27 56.878 274.183 56.0076L270.136 15.8318C270.045 14.9219 270.268 14.1601 270.805 13.5464C271.339 12.8932 272.041 12.5228 272.911 12.4351L299.735 9.73354C300.645 9.6419 301.405 9.84512 302.014 10.3432C302.62 10.8017 302.967 11.4662 303.054 12.3366C303.138 13.1674 302.929 13.8678 302.427 14.4379C301.925 15.008 301.219 15.3389 300.309 15.4306L276.571 17.8213L278.024 32.2419L295.055 30.5265C295.965 30.4349 296.725 30.6381 297.335 31.1362C297.94 31.5947 298.285 32.2394 298.369 33.0702C298.452 33.901 298.245 34.6213 297.747 35.2309C297.245 35.801 296.539 36.1319 295.629 36.2235L278.597 37.9389L280.092 52.7749L303.829 50.3841C304.739 50.2925 305.497 50.4759 306.103 50.9344C306.708 51.393 307.053 52.0376 307.137 52.8685C307.224 53.7388 307.019 54.4789 306.521 55.0885C306.019 55.6586 305.313 55.9895 304.403 56.0811L277.579 58.7827Z"/>
</mask>
<path d="M277.579 58.7827C276.709 58.8704 275.947 58.6474 275.294 58.1137C274.641 57.58 274.27 56.878 274.183 56.0076L270.136 15.8318C270.045 14.9219 270.268 14.1601 270.805 13.5464C271.339 12.8932 272.041 12.5228 272.911 12.4351L299.735 9.73354C300.645 9.6419 301.405 9.84512 302.014 10.3432C302.62 10.8017 302.967 11.4662 303.054 12.3366C303.138 13.1674 302.929 13.8678 302.427 14.4379C301.925 15.008 301.219 15.3389 300.309 15.4306L276.571 17.8213L278.024 32.2419L295.055 30.5265C295.965 30.4349 296.725 30.6381 297.335 31.1362C297.94 31.5947 298.285 32.2394 298.369 33.0702C298.452 33.901 298.245 34.6213 297.747 35.2309C297.245 35.801 296.539 36.1319 295.629 36.2235L278.597 37.9389L280.092 52.7749L303.829 50.3841C304.739 50.2925 305.497 50.4759 306.103 50.9344C306.708 51.393 307.053 52.0376 307.137 52.8685C307.224 53.7388 307.019 54.4789 306.521 55.0885C306.019 55.6586 305.313 55.9895 304.403 56.0811L277.579 58.7827Z" fill="#6DD8CE"/>
<path d="M275.294 58.1137L271.363 62.925L271.363 62.925L275.294 58.1137ZM270.805 13.5464L275.478 17.6408L275.549 17.5602L275.617 17.4773L270.805 13.5464ZM302.014 10.3432L298.083 15.1545L298.173 15.2273L298.264 15.2967L302.014 10.3432ZM302.427 14.4379L307.089 18.5442L307.089 18.5442L302.427 14.4379ZM276.571 17.8213L275.949 11.6397L269.767 12.2623L270.389 18.4439L276.571 17.8213ZM278.024 32.2419L271.842 32.8645L272.464 39.0462L278.646 38.4236L278.024 32.2419ZM297.335 31.1362L293.404 35.9475L293.493 36.0203L293.585 36.0897L297.335 31.1362ZM297.747 35.2309L302.41 39.3371L302.486 39.2508L302.558 39.1618L297.747 35.2309ZM278.597 37.9389L277.975 31.7573L271.793 32.3799L272.416 38.5615L278.597 37.9389ZM280.092 52.7749L273.91 53.3975L274.533 59.5792L280.714 58.9566L280.092 52.7749ZM306.103 50.9344L309.853 45.9809L309.853 45.9809L306.103 50.9344ZM306.521 55.0885L311.183 59.1947L311.26 59.1084L311.332 59.0194L306.521 55.0885ZM276.957 52.6011C277.236 52.5729 277.639 52.5833 278.101 52.7185C278.567 52.8551 278.948 53.0765 279.225 53.3024L271.363 62.925C273.344 64.5436 275.76 65.2103 278.202 64.9644L276.957 52.6011ZM279.225 53.3024C279.501 53.5283 279.794 53.8576 280.021 54.2875C280.246 54.7131 280.336 55.1056 280.364 55.385L268.001 56.6302C268.247 59.0722 269.382 61.3065 271.363 62.925L279.225 53.3024ZM280.364 55.385L276.318 15.2092L263.955 16.4544L268.001 56.6302L280.364 55.385ZM276.318 15.2092C276.34 15.4305 276.342 15.8288 276.198 16.3235C276.048 16.8346 275.788 17.2872 275.478 17.6408L266.132 9.45211C264.317 11.5245 263.714 14.06 263.955 16.4544L276.318 15.2092ZM275.617 17.4773C275.391 17.7538 275.062 18.0467 274.632 18.2736C274.206 18.4981 273.814 18.5886 273.534 18.6168L272.289 6.25347C269.847 6.49942 267.613 7.63444 265.994 9.61558L275.617 17.4773ZM273.534 18.6168L300.358 15.9152L299.112 3.55189L272.289 6.25347L273.534 18.6168ZM300.358 15.9152C300.185 15.9326 299.835 15.9405 299.382 15.8192C298.91 15.693 298.46 15.4622 298.083 15.1545L305.945 5.53187C303.852 3.82216 301.375 3.32398 299.112 3.55189L300.358 15.9152ZM298.264 15.2967C297.845 14.9792 297.478 14.5532 297.22 14.0593C296.972 13.5839 296.895 13.1809 296.873 12.9592L309.236 11.714C309.004 9.41041 307.961 7.05255 305.764 5.38969L298.264 15.2967ZM296.873 12.9592C296.845 12.6812 296.849 12.2372 297.007 11.7071C297.17 11.1632 297.446 10.6933 297.764 10.3317L307.089 18.5442C308.853 16.5411 309.474 14.0741 309.236 11.714L296.873 12.9592ZM297.764 10.3317C298.092 9.95942 298.486 9.67471 298.884 9.4879C299.265 9.30921 299.561 9.26148 299.686 9.2489L300.931 21.6122C303.065 21.3973 305.347 20.5224 307.089 18.5442L297.764 10.3317ZM299.686 9.2489L275.949 11.6397L277.194 24.003L300.931 21.6122L299.686 9.2489ZM270.389 18.4439L271.842 32.8645L284.205 31.6193L282.753 17.1987L270.389 18.4439ZM278.646 38.4236L295.678 36.7082L294.433 24.3449L277.401 26.0603L278.646 38.4236ZM295.678 36.7082C295.505 36.7256 295.156 36.7335 294.702 36.6122C294.23 36.486 293.78 36.2551 293.404 35.9475L301.265 26.3249C299.173 24.6151 296.695 24.117 294.433 24.3449L295.678 36.7082ZM293.585 36.0897C293.2 35.7989 292.836 35.3935 292.568 34.893C292.308 34.4051 292.215 33.9708 292.187 33.6928L304.55 32.4476C304.313 30.0875 303.213 27.7937 301.085 26.1827L293.585 36.0897ZM292.187 33.6928C292.159 33.4114 292.167 32.9973 292.305 32.5157C292.446 32.0267 292.68 31.6133 292.936 31.3001L302.558 39.1618C304.167 37.1927 304.788 34.8075 304.55 32.4476L292.187 33.6928ZM293.084 31.1247C293.412 30.7524 293.806 30.4677 294.204 30.2809C294.586 30.1022 294.882 30.0545 295.006 30.0419L296.252 42.4052C298.386 42.1903 300.667 41.3154 302.41 39.3371L293.084 31.1247ZM295.006 30.0419L277.975 31.7573L279.22 44.1206L296.252 42.4052L295.006 30.0419ZM272.416 38.5615L273.91 53.3975L286.273 52.1523L284.779 37.3163L272.416 38.5615ZM280.714 58.9566L304.452 56.5658L303.207 44.2025L279.469 46.5932L280.714 58.9566ZM304.452 56.5658C304.327 56.5784 304.027 56.5906 303.618 56.4915C303.19 56.3879 302.748 56.1874 302.352 55.888L309.853 45.9809C307.751 44.3898 305.34 43.9875 303.207 44.2025L304.452 56.5658ZM302.352 55.888C301.968 55.5971 301.604 55.1918 301.336 54.6912C301.075 54.2033 300.983 53.7691 300.955 53.4911L313.318 52.2459C313.081 49.8857 311.981 47.5919 309.853 45.9809L302.352 55.888ZM300.955 53.4911C300.932 53.2654 300.932 52.8842 301.061 52.416C301.195 51.9347 301.428 51.5028 301.71 51.1577L311.332 59.0194C312.993 56.9862 313.551 54.5561 313.318 52.2459L300.955 53.4911ZM301.858 50.9823C302.186 50.61 302.58 50.3253 302.978 50.1385C303.36 49.9598 303.655 49.9121 303.78 49.8995L305.026 62.2628C307.159 62.0479 309.441 61.173 311.183 59.1947L301.858 50.9823ZM303.78 49.8995L276.957 52.6011L278.202 64.9644L305.026 62.2628L303.78 49.8995Z" fill="#0B0D0C" mask="url(#path-9-outside-5_355_199)"/>
<mask id="path-11-outside-6_355_199" maskUnits="userSpaceOnUse" x="391.126" y="0.380184" width="56.7559" height="64.8087" fill="black">
<rect fill="white" x="391.126" y="0.380184" width="56.7559" height="64.8087"/>
<path d="M417.441 55.693C416.57 55.6054 415.868 55.2349 415.335 54.5817C414.801 53.9285 414.578 53.1667 414.665 52.2963L419.023 9.03463L425.194 9.65624L420.837 52.9179C420.75 53.7883 420.379 54.4903 419.726 55.024C419.073 55.5577 418.311 55.7807 417.441 55.693ZM405.631 13.4406C404.8 13.3569 404.133 13.0301 403.631 12.46C403.173 11.8543 402.985 11.136 403.069 10.3052C403.153 9.47441 403.478 8.82775 404.044 8.36523C404.653 7.86714 405.374 7.65993 406.204 7.74361L437.953 10.9413C438.784 11.025 439.429 11.3696 439.887 11.9753C440.389 12.5454 440.599 13.2459 440.515 14.0767C440.431 14.9075 440.085 15.572 439.475 16.07C438.909 16.5326 438.21 16.722 437.38 16.6383L405.631 13.4406Z"/>
</mask>
<path d="M417.441 55.693C416.57 55.6054 415.868 55.2349 415.335 54.5817C414.801 53.9285 414.578 53.1667 414.665 52.2963L419.023 9.03463L425.194 9.65624L420.837 52.9179C420.75 53.7883 420.379 54.4903 419.726 55.024C419.073 55.5577 418.311 55.7807 417.441 55.693ZM405.631 13.4406C404.8 13.3569 404.133 13.0301 403.631 12.46C403.173 11.8543 402.985 11.136 403.069 10.3052C403.153 9.47441 403.478 8.82775 404.044 8.36523C404.653 7.86714 405.374 7.65993 406.204 7.74361L437.953 10.9413C438.784 11.025 439.429 11.3696 439.887 11.9753C440.389 12.5454 440.599 13.2459 440.515 14.0767C440.431 14.9075 440.085 15.572 439.475 16.07C438.909 16.5326 438.21 16.722 437.38 16.6383L405.631 13.4406Z" fill="white"/>
<path d="M415.335 54.5817L410.523 58.5126L410.523 58.5126L415.335 54.5817ZM419.023 9.03463L419.645 2.85298L413.464 2.23038L412.841 8.41203L419.023 9.03463ZM425.194 9.65624L431.376 10.2788L431.999 4.09718L425.817 3.47458L425.194 9.65624ZM419.726 55.024L423.657 59.8354L423.657 59.8354L419.726 55.024ZM403.631 12.46L398.678 16.21L398.817 16.3935L398.969 16.5662L403.631 12.46ZM404.044 8.36523L400.113 3.5539L400.113 3.5539L404.044 8.36523ZM439.887 11.9753L434.934 15.7254L435.073 15.9089L435.225 16.0815L439.887 11.9753ZM439.475 16.07L443.406 20.8814L443.406 20.8814L439.475 16.07ZM418.063 49.5114C418.343 49.5395 418.735 49.63 419.161 49.8546C419.591 50.0814 419.92 50.3744 420.146 50.6509L410.523 58.5126C412.142 60.4937 414.376 61.6287 416.818 61.8747L418.063 49.5114ZM420.146 50.6509C420.372 50.9274 420.593 51.3085 420.73 51.775C420.865 52.2368 420.875 52.6395 420.847 52.9189L408.484 51.6737C408.238 54.1157 408.905 56.5314 410.523 58.5126L420.146 50.6509ZM420.847 52.9189L425.204 9.65723L412.841 8.41203L408.484 51.6737L420.847 52.9189ZM418.4 15.2163L424.572 15.8379L425.817 3.47458L419.645 2.85298L418.4 15.2163ZM419.013 9.03364L414.656 52.2954L427.019 53.5406L431.376 10.2788L419.013 9.03364ZM414.656 52.2954C414.684 52.0159 414.774 51.6234 414.999 51.1978C415.226 50.7679 415.519 50.4386 415.795 50.2127L423.657 59.8354C425.638 58.2168 426.773 55.9825 427.019 53.5406L414.656 52.2954ZM415.795 50.2127C416.072 49.9868 416.453 49.7654 416.919 49.6288C417.381 49.4936 417.784 49.4832 418.063 49.5114L416.818 61.8747C419.26 62.1206 421.676 61.4539 423.657 59.8354L415.795 50.2127ZM406.253 7.25897C406.481 7.28196 406.836 7.35488 407.244 7.55464C407.66 7.75904 408.018 8.04108 408.294 8.35372L398.969 16.5662C400.614 18.4342 402.785 19.3984 405.008 19.6223L406.253 7.25897ZM408.585 8.70988C408.836 9.04204 409.041 9.44918 409.158 9.89829C409.273 10.3372 409.274 10.6996 409.251 10.9278L396.887 9.68262C396.663 11.9056 397.175 14.2255 398.678 16.21L408.585 8.70988ZM409.251 10.9278C409.228 11.1526 409.153 11.5363 408.927 11.9864C408.693 12.4516 408.361 12.861 407.975 13.1766L400.113 3.5539C398.086 5.20973 397.111 7.46576 396.887 9.68262L409.251 10.9278ZM407.975 13.1766C407.661 13.4325 407.248 13.6663 406.759 13.807C406.277 13.9455 405.863 13.9536 405.582 13.9253L406.827 1.56195C404.467 1.32427 402.082 1.94513 400.113 3.5539L407.975 13.1766ZM405.582 13.9253L437.331 17.1229L438.576 4.75963L406.827 1.56195L405.582 13.9253ZM437.331 17.1229C437.053 17.0949 436.619 17.0024 436.131 16.7415C435.63 16.4739 435.225 16.1096 434.934 15.7254L444.841 8.22523C443.23 6.09721 440.936 4.99733 438.576 4.75963L437.331 17.1229ZM435.225 16.0815C434.906 15.7199 434.63 15.2501 434.468 14.7062C434.309 14.1761 434.305 13.7321 434.333 13.4541L446.697 14.6993C446.934 12.3392 446.314 9.87211 444.55 7.86909L435.225 16.0815ZM434.333 13.4541C434.362 13.1727 434.452 12.7685 434.684 12.3243C434.919 11.8731 435.231 11.5147 435.544 11.2587L443.406 20.8814C445.375 19.2726 446.459 17.0592 446.697 14.6993L434.333 13.4541ZM435.544 11.2587C435.93 10.9431 436.398 10.6989 436.9 10.5626C437.387 10.4308 437.777 10.434 438.002 10.4566L436.757 22.82C438.974 23.0432 441.379 22.5372 443.406 20.8814L435.544 11.2587ZM438.002 10.4566L406.253 7.25897L405.008 19.6223L436.757 22.82L438.002 10.4566Z" fill="#0B0D0C" mask="url(#path-11-outside-6_355_199)"/>
<mask id="path-13-outside-7_355_199" maskUnits="userSpaceOnUse" x="457.88" y="6.94724" width="71.939" height="71.939" fill="black">
<rect fill="white" x="457.88" y="6.94724" width="71.939" height="71.939"/>
<path d="M489.04 66.5284C485.611 65.8306 482.59 64.6274 479.975 62.9186C477.369 61.1708 475.243 59.0543 473.598 56.5689C472 54.0525 470.926 51.2572 470.375 48.1829C469.831 45.0696 469.909 41.7985 470.606 38.3696C471.304 34.9408 472.507 31.9192 474.216 29.3047C475.925 26.6903 478.003 24.5567 480.449 22.9039C482.942 21.2201 485.726 20.1026 488.8 19.5515C491.883 18.9614 495.138 19.0152 498.567 19.713C501.996 20.4107 504.994 21.6295 507.562 23.3694C510.176 25.0781 512.302 27.1947 513.939 29.719C515.584 32.2044 516.682 34.9842 517.233 38.0585C517.784 41.1328 517.71 44.3844 517.013 47.8133C516.315 51.2421 515.108 54.2833 513.391 56.9367C511.682 59.5511 509.581 61.7002 507.088 63.384C504.603 65.0289 501.819 66.1464 498.736 66.7365C495.701 67.2955 492.469 67.2262 489.04 66.5284ZM490.158 61.0345C492.691 61.5499 495.1 61.5736 497.387 61.1056C499.72 60.6065 501.829 59.7168 503.712 58.4365C505.604 57.1171 507.181 55.4497 508.443 53.4342C509.744 51.4267 510.653 49.1566 511.168 46.6239C511.683 44.0912 511.735 41.6467 511.321 39.2902C510.947 36.9417 510.143 34.8101 508.91 32.8954C507.684 30.9418 506.091 29.2988 504.131 27.9665C502.209 26.6422 499.982 25.7223 497.449 25.2069C494.916 24.6915 492.487 24.6639 490.162 25.1239C487.875 25.5919 485.786 26.4856 483.895 27.8049C482.05 29.0932 480.477 30.7411 479.176 32.7487C477.875 34.7562 476.966 37.0264 476.451 39.559C475.936 42.0917 475.884 44.5362 476.298 46.8927C476.711 49.2491 477.511 51.4002 478.697 53.3459C479.931 55.2606 481.504 56.8996 483.418 58.2629C485.379 59.5952 487.625 60.5191 490.158 61.0345Z"/>
</mask>
<path d="M489.04 66.5284C485.611 65.8306 482.59 64.6274 479.975 62.9186C477.369 61.1708 475.243 59.0543 473.598 56.5689C472 54.0525 470.926 51.2572 470.375 48.1829C469.831 45.0696 469.909 41.7985 470.606 38.3696C471.304 34.9408 472.507 31.9192 474.216 29.3047C475.925 26.6903 478.003 24.5567 480.449 22.9039C482.942 21.2201 485.726 20.1026 488.8 19.5515C491.883 18.9614 495.138 19.0152 498.567 19.713C501.996 20.4107 504.994 21.6295 507.562 23.3694C510.176 25.0781 512.302 27.1947 513.939 29.719C515.584 32.2044 516.682 34.9842 517.233 38.0585C517.784 41.1328 517.71 44.3844 517.013 47.8133C516.315 51.2421 515.108 54.2833 513.391 56.9367C511.682 59.5511 509.581 61.7002 507.088 63.384C504.603 65.0289 501.819 66.1464 498.736 66.7365C495.701 67.2955 492.469 67.2262 489.04 66.5284ZM490.158 61.0345C492.691 61.5499 495.1 61.5736 497.387 61.1056C499.72 60.6065 501.829 59.7168 503.712 58.4365C505.604 57.1171 507.181 55.4497 508.443 53.4342C509.744 51.4267 510.653 49.1566 511.168 46.6239C511.683 44.0912 511.735 41.6467 511.321 39.2902C510.947 36.9417 510.143 34.8101 508.91 32.8954C507.684 30.9418 506.091 29.2988 504.131 27.9665C502.209 26.6422 499.982 25.7223 497.449 25.2069C494.916 24.6915 492.487 24.6639 490.162 25.1239C487.875 25.5919 485.786 26.4856 483.895 27.8049C482.05 29.0932 480.477 30.7411 479.176 32.7487C477.875 34.7562 476.966 37.0264 476.451 39.559C475.936 42.0917 475.884 44.5362 476.298 46.8927C476.711 49.2491 477.511 51.4002 478.697 53.3459C479.931 55.2606 481.504 56.8996 483.418 58.2629C485.379 59.5952 487.625 60.5191 490.158 61.0345Z" fill="white"/>
<path d="M479.975 62.9186L476.515 68.0788L476.545 68.0992L476.576 68.1192L479.975 62.9186ZM473.598 56.5689L468.353 59.8995L468.385 59.949L468.417 59.9978L473.598 56.5689ZM470.375 48.1829L464.254 49.2507L464.257 49.265L464.259 49.2792L470.375 48.1829ZM474.216 29.3047L469.016 25.9056L469.016 25.9056L474.216 29.3047ZM480.449 22.9039L476.972 17.7551L476.971 17.7558L480.449 22.9039ZM488.8 19.5515L489.897 25.6669L489.933 25.6604L489.969 25.6536L488.8 19.5515ZM507.562 23.3694L504.076 28.5127L504.119 28.5417L504.162 28.57L507.562 23.3694ZM513.939 29.719L508.726 33.0993L508.742 33.1237L508.758 33.1479L513.939 29.719ZM517.233 38.0585L523.348 36.9622L523.348 36.9622L517.233 38.0585ZM513.391 56.9367L518.592 60.3358L518.599 60.3237L518.607 60.3116L513.391 56.9367ZM507.088 63.384L510.517 68.5651L510.541 68.549L510.565 68.5328L507.088 63.384ZM498.736 66.7365L499.862 72.8466L499.883 72.8427L499.905 72.8386L498.736 66.7365ZM497.387 61.1056L498.633 67.1923L498.659 67.1868L498.686 67.1811L497.387 61.1056ZM503.712 58.4365L507.205 63.5748L507.236 63.5537L507.267 63.5323L503.712 58.4365ZM508.443 53.4342L503.23 50.055L503.203 50.0955L503.178 50.1365L508.443 53.4342ZM511.321 39.2902L505.186 40.2679L505.193 40.3156L505.202 40.3633L511.321 39.2902ZM508.91 32.8954L503.647 36.197L503.667 36.2287L503.687 36.2601L508.91 32.8954ZM504.131 27.9665L500.605 33.0823L500.622 33.0939L500.639 33.1054L504.131 27.9665ZM490.162 25.1239L488.956 19.0291L488.936 19.0331L488.916 19.0372L490.162 25.1239ZM483.895 27.8049L480.341 22.709L480.338 22.7112L483.895 27.8049ZM479.176 32.7487L484.389 36.128L479.176 32.7487ZM478.697 53.3459L473.393 56.5807L473.433 56.6462L473.474 56.7106L478.697 53.3459ZM483.418 58.2629L479.813 63.3232L479.869 63.3631L479.926 63.4018L483.418 58.2629ZM490.279 60.4403C487.528 59.8803 485.257 58.9483 483.374 57.7179L476.576 68.1192C479.922 70.3064 483.695 71.7809 487.801 72.6166L490.279 60.4403ZM483.435 57.7583C481.475 56.4436 479.947 54.9042 478.779 53.14L468.417 59.9978C470.539 63.2044 473.263 65.8981 476.515 68.0788L483.435 57.7583ZM478.843 53.2384C477.698 51.4355 476.906 49.4052 476.49 47.0865L464.259 49.2792C464.946 53.1091 466.302 56.6696 468.353 59.8995L478.843 53.2384ZM476.495 47.115C476.099 44.8437 476.135 42.3587 476.695 39.6086L464.518 37.1307C463.682 41.2383 463.564 45.2954 464.254 49.2507L476.495 47.115ZM476.695 39.6086C477.254 36.8571 478.186 34.5863 479.417 32.7038L469.016 25.9056C466.828 29.252 465.354 33.0245 464.518 37.1307L476.695 39.6086ZM479.417 32.7038C480.7 30.7405 482.205 29.2157 483.927 28.052L476.971 17.7558C473.801 19.8976 471.15 22.6401 469.016 25.9056L479.417 32.7038ZM483.926 28.0526C485.674 26.872 487.641 26.0712 489.897 25.6669L487.704 13.436C483.811 14.134 480.21 15.5681 476.972 17.7551L483.926 28.0526ZM489.969 25.6536C492.169 25.2324 494.602 25.2463 497.328 25.8011L499.806 13.6248C495.675 12.7841 491.597 12.6904 487.632 13.4494L489.969 25.6536ZM497.328 25.8011C500.056 26.3562 502.27 27.2884 504.076 28.5127L511.047 18.226C507.719 15.9707 503.936 14.4653 499.806 13.6248L497.328 25.8011ZM504.162 28.57C506.08 29.8235 507.578 31.3294 508.726 33.0993L519.152 26.3387C517.025 23.06 514.272 20.3328 510.961 18.1687L504.162 28.57ZM508.758 33.1479C509.913 34.8938 510.708 36.8728 511.117 39.1548L523.348 36.9622C522.655 33.0956 521.254 29.5149 519.12 26.2901L508.758 33.1479ZM511.117 39.1548C511.514 41.3684 511.484 43.8229 510.925 46.5743L523.101 49.0522C523.936 44.946 524.054 40.8973 523.348 36.9622L511.117 39.1548ZM510.925 46.5743C510.365 49.3244 509.427 51.626 508.175 53.5617L518.607 60.3116C520.788 56.9405 522.265 53.1598 523.101 49.0522L510.925 46.5743ZM508.19 53.5375C506.916 55.4868 505.393 57.0319 503.611 58.2353L510.565 68.5328C513.77 66.3686 516.448 63.6153 518.592 60.3358L508.19 53.5375ZM503.659 58.203C501.895 59.3706 499.887 60.1904 497.568 60.6344L499.905 72.8386C503.751 72.1023 507.31 70.6872 510.517 68.5651L503.659 58.203ZM497.611 60.6263C495.456 61.0233 493.032 61.0005 490.279 60.4403L487.801 72.6166C491.906 73.4519 495.947 73.5677 499.862 72.8466L497.611 60.6263ZM488.919 67.1226C492.183 67.7869 495.443 67.8453 498.633 67.1923L496.141 55.0188C494.758 55.3018 493.198 55.3128 491.397 54.9463L488.919 67.1226ZM498.686 67.1811C501.766 66.5223 504.626 65.3276 507.205 63.5748L500.22 53.2981C499.031 54.1061 497.674 54.6907 496.087 55.03L498.686 67.1811ZM507.267 63.5323C509.865 61.7198 512.017 59.4333 513.709 56.732L503.178 50.1365C502.345 51.4662 501.343 52.5144 500.158 53.3406L507.267 63.5323ZM513.657 56.8135C515.414 54.1028 516.598 51.0958 517.256 47.8628L505.08 45.385C504.707 47.2173 504.075 48.7506 503.23 50.055L513.657 56.8135ZM517.256 47.8628C517.914 44.6299 517.999 41.3991 517.441 38.2172L505.202 40.3633C505.47 41.8943 505.453 43.5526 505.08 45.385L517.256 47.8628ZM517.457 38.3126C516.953 35.1521 515.853 32.2012 514.133 29.5307L503.687 36.2601C504.433 37.419 504.941 38.7314 505.186 40.2679L517.457 38.3126ZM514.173 29.5939C512.478 26.8913 510.274 24.6294 507.622 22.8277L500.639 33.1054C501.908 33.9682 502.891 34.9923 503.647 36.197L514.173 29.5939ZM507.656 22.8508C504.975 21.003 501.952 19.783 498.688 19.1188L496.21 31.2951C498.011 31.6616 499.443 32.2814 500.605 33.0823L507.656 22.8508ZM498.688 19.1188C495.422 18.4542 492.159 18.3954 488.956 19.0291L491.368 31.2187C492.816 30.9323 494.411 30.9289 496.21 31.2951L498.688 19.1188ZM488.916 19.0372C485.811 19.6728 482.935 20.8998 480.341 22.709L487.449 32.9008C488.638 32.0714 489.94 31.5111 491.408 31.2107L488.916 19.0372ZM480.338 22.7112C477.794 24.4872 475.672 26.7319 473.962 29.3694L484.389 36.128C485.282 34.7503 486.306 33.6992 487.452 32.8986L480.338 22.7112ZM473.962 29.3694C472.205 32.0801 471.021 35.0871 470.363 38.3201L482.539 40.798C482.912 38.9656 483.544 37.4323 484.389 36.128L473.962 29.3694ZM470.363 38.3201C469.705 41.5531 469.62 44.7839 470.178 47.9657L482.417 45.8197C482.149 44.2886 482.166 42.6303 482.539 40.798L470.363 38.3201ZM470.178 47.9657C470.719 51.0487 471.782 53.939 473.393 56.5807L484.002 50.1111C483.24 48.8613 482.703 47.4495 482.417 45.8197L470.178 47.9657ZM473.474 56.7106C475.148 59.3091 477.278 61.5172 479.813 63.3232L487.023 53.2027C485.731 52.282 484.713 51.2121 483.92 49.9812L473.474 56.7106ZM479.926 63.4018C482.627 65.2369 485.653 66.458 488.919 67.1226L491.397 54.9463C489.598 54.5801 488.131 53.9536 486.91 53.1241L479.926 63.4018Z" fill="#0B0D0C" mask="url(#path-13-outside-7_355_199)"/>
<mask id="path-15-outside-8_355_199" maskUnits="userSpaceOnUse" x="522.601" y="22.718" width="60.7713" height="70.6473" fill="black">
<rect fill="white" x="522.601" y="22.718" width="60.7713" height="70.6473"/>
<path d="M534.29 76.3187C533.493 76.071 532.879 75.568 532.448 74.8097C532.056 74.0632 531.989 73.2722 532.248 72.4368L544.225 33.8748C544.485 33.0394 544.987 32.4253 545.734 32.0326C546.518 31.6517 547.309 31.5851 548.107 31.8328C548.942 32.0922 549.556 32.5952 549.949 33.3417C550.342 34.0882 550.408 34.8792 550.149 35.7146L544.842 52.8027L569.551 39.8045C570.148 39.4903 570.66 39.3163 571.087 39.2823C571.526 39.2104 571.954 39.2393 572.372 39.369C573.321 39.6639 573.916 40.161 574.157 40.8603C574.398 41.5596 574.338 42.2903 573.976 43.0524C573.626 43.7765 573.047 44.367 572.239 44.8238L553.185 54.8945L561.733 79.658C561.988 80.445 561.959 81.2065 561.648 81.9424C561.348 82.6403 560.887 83.1843 560.266 83.5744C559.657 83.9265 558.973 83.9847 558.214 83.7488C557.15 83.4186 556.464 82.7473 556.154 81.735L547.811 57.7219L542.436 60.5492L538.172 74.2766C537.913 75.1121 537.41 75.7261 536.663 76.1188C535.917 76.5115 535.126 76.5781 534.29 76.3187Z"/>
</mask>
<path d="M534.29 76.3187C533.493 76.071 532.879 75.568 532.448 74.8097C532.056 74.0632 531.989 73.2722 532.248 72.4368L544.225 33.8748C544.485 33.0394 544.987 32.4253 545.734 32.0326C546.518 31.6517 547.309 31.5851 548.107 31.8328C548.942 32.0922 549.556 32.5952 549.949 33.3417C550.342 34.0882 550.408 34.8792 550.149 35.7146L544.842 52.8027L569.551 39.8045C570.148 39.4903 570.66 39.3163 571.087 39.2823C571.526 39.2104 571.954 39.2393 572.372 39.369C573.321 39.6639 573.916 40.161 574.157 40.8603C574.398 41.5596 574.338 42.2903 573.976 43.0524C573.626 43.7765 573.047 44.367 572.239 44.8238L553.185 54.8945L561.733 79.658C561.988 80.445 561.959 81.2065 561.648 81.9424C561.348 82.6403 560.887 83.1843 560.266 83.5744C559.657 83.9265 558.973 83.9847 558.214 83.7488C557.15 83.4186 556.464 82.7473 556.154 81.735L547.811 57.7219L542.436 60.5492L538.172 74.2766C537.913 75.1121 537.41 75.7261 536.663 76.1188C535.917 76.5115 535.126 76.5781 534.29 76.3187Z" fill="white"/>
<path d="M532.448 74.8097L526.95 77.7022L526.996 77.7908L527.046 77.8779L532.448 74.8097ZM545.734 32.0326L543.02 26.4436L542.93 26.4874L542.842 26.534L545.734 32.0326ZM544.842 52.8027L538.908 50.9599L534.459 65.2842L547.734 58.3012L544.842 52.8027ZM569.551 39.8045L566.659 34.3059L566.659 34.3059L569.551 39.8045ZM571.087 39.2823L571.58 45.4757L571.838 45.4552L572.093 45.4134L571.087 39.2823ZM573.976 43.0524L579.57 45.755L579.58 45.7354L579.589 45.7158L573.976 43.0524ZM572.239 44.8238L575.142 50.3167L575.22 50.2756L575.297 50.2322L572.239 44.8238ZM553.185 54.8945L550.282 49.4016L545.576 51.8892L547.312 56.9215L553.185 54.8945ZM561.733 79.658L567.643 77.7418L567.625 77.6862L567.606 77.6309L561.733 79.658ZM561.648 81.9424L567.355 84.3962L567.362 84.3813L567.368 84.3664L561.648 81.9424ZM560.266 83.5744L563.376 88.953L563.475 88.8958L563.572 88.8349L560.266 83.5744ZM556.154 81.735L562.094 79.915L562.06 79.8048L562.022 79.6959L556.154 81.735ZM547.811 57.7218L553.679 55.6828L551.309 48.8613L544.918 52.2233L547.811 57.7218ZM542.436 60.5492L539.543 55.0507L537.266 56.2488L536.502 58.7065L542.436 60.5492ZM536.133 70.3853C536.458 70.4863 536.825 70.6677 537.169 70.9493C537.509 71.2277 537.726 71.5216 537.851 71.7414L527.046 77.8779C528.218 79.9416 530.071 81.5137 532.448 82.252L536.133 70.3853ZM537.947 71.9172C538.113 72.2332 538.254 72.6508 538.295 73.1352C538.335 73.6147 538.265 74.0113 538.182 74.2796L526.315 70.594C525.587 72.9379 525.759 75.438 526.95 77.7022L537.947 71.9172ZM538.182 74.2796L550.158 35.7176L538.292 32.032L526.315 70.594L538.182 74.2796ZM550.158 35.7176C550.075 35.9858 549.908 36.3524 549.603 36.7246C549.295 37.1007 548.942 37.3649 548.626 37.5312L542.842 26.534C540.577 27.7251 539.02 29.6881 538.292 32.032L550.158 35.7176ZM548.448 37.6216C548.22 37.732 547.875 37.8511 547.437 37.888C546.994 37.9253 546.589 37.8671 546.264 37.7661L549.95 25.8994C547.573 25.1611 545.155 25.4071 543.02 26.4436L548.448 37.6216ZM546.264 37.7661C545.996 37.6828 545.629 37.5159 545.257 37.2109C544.881 36.9029 544.617 36.5502 544.45 36.2342L555.448 30.4493C554.257 28.1851 552.294 26.6274 549.95 25.8994L546.264 37.7661ZM544.45 36.2342C544.284 35.9182 544.143 35.5006 544.103 35.0162C544.062 34.5367 544.132 34.1401 544.216 33.8718L556.082 37.5574C556.81 35.2135 556.639 32.7134 555.448 30.4493L544.45 36.2342ZM544.216 33.8718L538.908 50.9599L550.775 54.6455L556.082 37.5574L544.216 33.8718ZM547.734 58.3012L572.444 45.3031L566.659 34.3059L541.949 47.3041L547.734 58.3012ZM572.444 45.3031C572.522 45.2618 572.498 45.2815 572.383 45.3207C572.272 45.3582 571.993 45.4428 571.58 45.4757L570.595 33.089C568.986 33.2169 567.619 33.8006 566.659 34.3059L572.444 45.3031ZM572.093 45.4134C571.596 45.4949 571.048 45.4636 570.529 45.3024L574.215 33.4357C572.86 33.015 571.456 32.9259 570.082 33.1513L572.093 45.4134ZM570.529 45.3024C570.432 45.2723 570.029 45.1341 569.547 44.7312C569.02 44.2906 568.549 43.6565 568.283 42.883L580.032 38.8376C578.939 35.6635 576.348 34.0983 574.215 33.4357L570.529 45.3024ZM568.283 42.883C568.125 42.4263 568.059 41.9211 568.101 41.4211C568.141 40.9369 568.27 40.5841 568.363 40.389L579.589 45.7158C580.541 43.7093 580.877 41.2919 580.032 38.8376L568.283 42.883ZM568.382 40.3498C568.509 40.0863 568.673 39.862 568.843 39.6887C569.008 39.5208 569.14 39.439 569.181 39.4154L575.297 50.2322C577.031 49.2519 578.589 47.787 579.57 45.755L568.382 40.3498ZM569.336 39.3309L550.282 49.4016L556.089 60.3873L575.142 50.3167L569.336 39.3309ZM547.312 56.9215L555.86 81.685L567.606 77.6309L559.058 52.8674L547.312 56.9215ZM555.822 81.5741C555.745 81.3345 555.679 80.9954 555.694 80.5885C555.709 80.1781 555.803 79.8113 555.927 79.5184L567.368 84.3664C568.285 82.2016 568.341 79.8964 567.643 77.7418L555.822 81.5741ZM555.94 79.4886C556.017 79.3099 556.142 79.0874 556.335 78.8601C556.529 78.6313 556.747 78.4483 556.961 78.3139L563.572 88.8349C565.3 87.7492 566.577 86.2072 567.355 84.3962L555.94 79.4886ZM557.156 78.1958C557.623 77.926 558.179 77.7417 558.771 77.6915C559.343 77.6428 559.79 77.7327 560.056 77.8154L556.371 89.6821C558.548 90.3582 561.063 90.2907 563.376 88.953L557.156 78.1958ZM560.056 77.8154C560.314 77.8956 560.78 78.1006 561.244 78.5548C561.719 79.0186 561.976 79.5312 562.094 79.915L550.213 83.5549C551.161 86.649 553.466 88.7799 556.371 89.6821L560.056 77.8154ZM562.022 79.6959L553.679 55.6828L541.942 59.7609L550.285 83.774L562.022 79.6959ZM544.918 52.2233L539.543 55.0507L545.328 66.0478L550.703 63.2204L544.918 52.2233ZM536.502 58.7065L532.239 72.4339L544.106 76.1194L548.369 62.392L536.502 58.7065ZM532.239 72.4339C532.322 72.1656 532.489 71.799 532.794 71.4268C533.102 71.0507 533.455 70.7865 533.771 70.6202L539.556 81.6174C541.82 80.4264 543.378 78.4633 544.106 76.1194L532.239 72.4339ZM533.771 70.6202C534.087 70.454 534.504 70.3131 534.989 70.2723C535.468 70.2319 535.865 70.302 536.133 70.3853L532.448 82.252C534.791 82.98 537.292 82.8084 539.556 81.6174L533.771 70.6202Z" fill="#0B0D0C" mask="url(#path-15-outside-8_355_199)"/>
<mask id="path-17-outside-9_355_199" maskUnits="userSpaceOnUse" x="583.755" y="43.9109" width="66.7109" height="73.5964" fill="black">
<rect fill="white" x="583.755" y="43.9109" width="66.7109" height="73.5964"/>
<path d="M595.756 96.6297C594.951 96.2879 594.39 95.7259 594.074 94.9438C593.758 94.1617 593.771 93.368 594.113 92.5628L609.894 55.3951C610.251 54.5533 610.813 53.9927 611.58 53.7134C612.362 53.3975 613.156 53.4105 613.961 53.7523L638.776 64.2883C639.618 64.6458 640.186 65.1894 640.481 65.9194C640.791 66.6128 640.775 67.3621 640.434 68.1673C640.107 68.9359 639.587 69.4493 638.872 69.7076C638.158 69.9658 637.38 69.9162 636.538 69.5588L614.578 60.2349L608.914 73.5758L624.67 80.2657C625.512 80.6231 626.08 81.1668 626.375 81.8967C626.685 82.5901 626.677 83.3211 626.351 84.0897C626.025 84.8583 625.497 85.39 624.767 85.6849C624.052 85.9431 623.274 85.8935 622.432 85.5361L606.676 78.8462L600.848 92.5714L622.809 101.895C623.65 102.253 624.227 102.778 624.537 103.471C624.847 104.165 624.839 104.896 624.513 105.664C624.171 106.47 623.635 107.02 622.905 107.314C622.191 107.573 621.413 107.523 620.571 107.166L595.756 96.6297Z"/>
</mask>
<path d="M595.756 96.6297C594.951 96.2879 594.39 95.7259 594.074 94.9438C593.758 94.1617 593.771 93.368 594.113 92.5628L609.894 55.3951C610.251 54.5533 610.813 53.9927 611.58 53.7134C612.362 53.3975 613.156 53.4105 613.961 53.7523L638.776 64.2883C639.618 64.6458 640.186 65.1894 640.481 65.9194C640.791 66.6128 640.775 67.3621 640.434 68.1673C640.107 68.9359 639.587 69.4493 638.872 69.7076C638.158 69.9658 637.38 69.9162 636.538 69.5588L614.578 60.2349L608.914 73.5758L624.67 80.2657C625.512 80.6231 626.08 81.1668 626.375 81.8967C626.685 82.5901 626.677 83.3211 626.351 84.0897C626.025 84.8583 625.497 85.39 624.767 85.6849C624.052 85.9431 623.274 85.8935 622.432 85.5361L606.676 78.8462L600.848 92.5714L622.809 101.895C623.65 102.253 624.227 102.778 624.537 103.471C624.847 104.165 624.839 104.896 624.513 105.664C624.171 106.47 623.635 107.02 622.905 107.314C622.191 107.573 621.413 107.523 620.571 107.166L595.756 96.6297Z" fill="white"/>
<path d="M594.074 94.9438L588.313 97.2707L588.313 97.2707L594.074 94.9438ZM611.58 53.7134L613.707 59.5509L613.807 59.5142L613.907 59.4741L611.58 53.7134ZM640.481 65.9194L634.72 68.2463L634.763 68.3529L634.81 68.4579L640.481 65.9194ZM638.872 69.7076L640.984 75.5505L640.984 75.5505L638.872 69.7076ZM614.578 60.2349L617.006 54.5161L611.287 52.088L608.859 57.8068L614.578 60.2349ZM608.914 73.5758L603.195 71.1477L600.767 76.8665L606.485 79.2946L608.914 73.5758ZM626.375 81.8967L620.614 84.2236L620.657 84.3303L620.704 84.4352L626.375 81.8967ZM624.767 85.6849L626.879 91.5278L626.987 91.4887L627.094 91.4456L624.767 85.6849ZM606.676 78.8462L609.104 73.1274L603.385 70.6993L600.957 76.4181L606.676 78.8462ZM600.848 92.5714L595.13 90.1433L592.701 95.8621L598.42 98.2902L600.848 92.5714ZM624.537 103.471L630.208 100.933L630.208 100.933L624.537 103.471ZM622.905 107.314L625.017 113.157L625.125 113.118L625.232 113.075L622.905 107.314ZM598.184 90.9109C598.442 91.0207 598.79 91.2235 599.13 91.5642C599.474 91.9084 599.701 92.2858 599.835 92.6169L588.313 97.2707C589.272 99.6427 591.069 101.389 593.328 102.349L598.184 90.9109ZM599.835 92.6169C599.969 92.9479 600.067 93.3776 600.059 93.8636C600.051 94.3447 599.942 94.7323 599.832 94.9909L588.394 90.1347C587.435 92.3938 587.355 94.8986 588.313 97.2707L599.835 92.6169ZM599.832 94.9909L615.613 57.8232L604.175 52.967L588.394 90.1347L599.832 94.9909ZM615.613 57.8232C615.526 58.0279 615.336 58.3781 614.971 58.7421C614.594 59.1181 614.148 59.39 613.707 59.5509L609.453 47.8759C606.864 48.8192 605.115 50.7518 604.175 52.967L615.613 57.8232ZM613.907 59.4741C613.576 59.6079 613.146 59.7062 612.66 59.6983C612.179 59.6904 611.791 59.5809 611.533 59.4712L616.389 48.0335C614.13 47.0743 611.625 46.9945 609.253 47.9527L613.907 59.4741ZM611.533 59.4712L636.348 70.0072L641.204 58.5695L616.389 48.0335L611.533 59.4712ZM636.348 70.0072C636.188 69.9393 635.878 69.7781 635.539 69.4536C635.186 69.1161 634.902 68.6971 634.72 68.2463L646.242 63.5925C645.229 61.0869 643.297 59.4583 641.204 58.5695L636.348 70.0072ZM634.81 68.4579C634.595 67.9777 634.479 67.4278 634.49 66.8709C634.501 66.3348 634.628 65.9443 634.715 65.7392L646.152 70.5954C647.057 68.4643 647.277 65.8954 646.151 63.3809L634.81 68.4579ZM634.715 65.7392C634.824 65.482 635.041 65.0947 635.435 64.7062C635.839 64.3075 636.307 64.0284 636.76 63.8646L640.984 75.5505C643.495 74.6431 645.225 72.7788 646.152 70.5954L634.715 65.7392ZM636.76 63.8646C637.227 63.696 637.709 63.6357 638.148 63.6637C638.568 63.6905 638.851 63.7909 638.966 63.84L634.11 75.2776C636.084 76.1158 638.505 76.4466 640.984 75.5505L636.76 63.8646ZM638.966 63.84L617.006 54.5161L612.15 65.9537L634.11 75.2776L638.966 63.84ZM608.859 57.8068L603.195 71.1477L614.632 76.0039L620.297 62.663L608.859 57.8068ZM606.485 79.2946L622.242 85.9845L627.098 74.5468L611.342 67.8569L606.485 79.2946ZM622.242 85.9845C622.082 85.9166 621.772 85.7555 621.433 85.4309C621.08 85.0934 620.796 84.6744 620.614 84.2236L632.136 79.5698C631.124 77.0642 629.192 75.4357 627.098 74.5468L622.242 85.9845ZM620.704 84.4352C620.507 83.9955 620.383 83.4648 620.389 82.8972C620.395 82.344 620.523 81.9188 620.632 81.6616L632.07 86.5178C632.997 84.3344 633.136 81.7943 632.046 79.3582L620.704 84.4352ZM620.632 81.6616C620.743 81.4013 620.949 81.0421 621.302 80.6866C621.661 80.3256 622.065 80.0756 622.44 79.9241L627.094 91.4456C629.451 90.4933 631.143 88.701 632.07 86.5178L620.632 81.6616ZM622.655 79.842C623.121 79.6733 623.603 79.613 624.042 79.641C624.463 79.6678 624.745 79.7682 624.86 79.8173L620.004 91.2549C621.978 92.0931 624.4 92.4239 626.879 91.5278L622.655 79.842ZM624.86 79.8173L609.104 73.1274L604.248 84.565L620.004 91.2549L624.86 79.8173ZM600.957 76.4181L595.13 90.1433L606.567 94.9995L612.395 81.2743L600.957 76.4181ZM598.42 98.2902L620.381 107.614L625.237 96.1765L603.276 86.8526L598.42 98.2902ZM620.381 107.614C620.265 107.565 619.997 107.432 619.686 107.148C619.36 106.851 619.069 106.463 618.866 106.01L630.208 100.933C629.131 98.527 627.211 97.0147 625.237 96.1765L620.381 107.614ZM618.866 106.01C618.669 105.57 618.545 105.04 618.551 104.472C618.557 103.919 618.685 103.494 618.794 103.236L630.232 108.093C631.159 105.909 631.298 103.369 630.208 100.933L618.866 106.01ZM618.794 103.236C618.883 103.028 619.066 102.693 619.405 102.345C619.753 101.987 620.165 101.721 620.578 101.554L625.232 113.075C627.666 112.092 629.324 110.23 630.232 108.093L618.794 103.236ZM620.793 101.472C621.26 101.303 621.742 101.243 622.181 101.271C622.601 101.297 622.883 101.398 622.999 101.447L618.143 112.885C620.117 113.723 622.538 114.054 625.017 113.157L620.793 101.472ZM622.999 101.447L598.184 90.9109L593.328 102.349L618.143 112.885L622.999 101.447Z" fill="#0B0D0C" mask="url(#path-17-outside-9_355_199)"/>
<mask id="path-19-outside-10_355_199" maskUnits="userSpaceOnUse" x="642.203" y="69.9374" width="75.0188" height="79.7658" fill="black">
<rect fill="white" x="642.203" y="69.9374" width="75.0188" height="79.7658"/>
<path d="M654.824 122.968C654.057 122.547 653.556 121.932 653.32 121.122C653.119 120.332 653.229 119.553 653.65 118.786L673.075 83.3867C673.515 82.5849 674.113 82.074 674.869 81.8537C675.679 81.6178 676.467 81.7102 677.234 82.1311C678.071 82.5902 678.586 83.3039 678.781 84.2723L684.936 127.11L700.631 98.5084C701.071 97.7067 701.687 97.2053 702.477 97.0042C703.287 96.7682 704.076 96.8607 704.843 97.2815C705.644 97.7215 706.146 98.3368 706.347 99.1275C706.567 99.8834 706.457 100.662 706.017 101.464L686.591 136.863C686.17 137.63 685.573 138.141 684.798 138.396C684.023 138.651 683.234 138.559 682.433 138.119C682.084 137.927 681.739 137.647 681.397 137.278C681.109 136.894 680.929 136.477 680.857 136.03L674.702 93.192L659.035 121.741C658.614 122.508 657.999 123.01 657.189 123.246C656.414 123.501 655.626 123.408 654.824 122.968Z"/>
</mask>
<path d="M654.824 122.968C654.057 122.547 653.556 121.932 653.32 121.122C653.119 120.332 653.229 119.553 653.65 118.786L673.075 83.3867C673.515 82.5849 674.113 82.074 674.869 81.8537C675.679 81.6178 676.467 81.7102 677.234 82.1311C678.071 82.5902 678.586 83.3039 678.781 84.2723L684.936 127.11L700.631 98.5084C701.071 97.7067 701.687 97.2053 702.477 97.0042C703.287 96.7682 704.076 96.8607 704.843 97.2815C705.644 97.7215 706.146 98.3368 706.347 99.1275C706.567 99.8834 706.457 100.662 706.017 101.464L686.591 136.863C686.17 137.63 685.573 138.141 684.798 138.396C684.023 138.651 683.234 138.559 682.433 138.119C682.084 137.927 681.739 137.647 681.397 137.278C681.109 136.894 680.929 136.477 680.857 136.03L674.702 93.192L659.035 121.741C658.614 122.508 657.999 123.01 657.189 123.246C656.414 123.501 655.626 123.408 654.824 122.968Z" fill="white"/>
<path d="M653.32 121.122L647.299 122.654L647.325 122.757L647.355 122.86L653.32 121.122ZM674.869 81.8537L673.131 75.8888L673.131 75.8888L674.869 81.8537ZM678.781 84.2723L684.93 83.3887L684.906 83.2186L684.872 83.0502L678.781 84.2723ZM684.936 127.11L678.786 127.994L681.432 146.409L690.383 130.099L684.936 127.11ZM702.477 97.0042L704.009 103.025L704.113 102.999L704.215 102.969L702.477 97.0042ZM706.347 99.1275L700.326 100.659L700.352 100.763L700.382 100.865L706.347 99.1275ZM681.397 137.278L676.422 141L676.617 141.261L676.839 141.5L681.397 137.278ZM680.857 136.03L674.708 136.913L674.715 136.964L674.723 137.014L680.857 136.03ZM674.702 93.192L680.852 92.3083L678.206 73.8928L669.256 90.203L674.702 93.192ZM657.189 123.246L655.451 117.281L655.349 117.311L655.247 117.344L657.189 123.246ZM657.813 117.522C658.059 117.657 658.385 117.893 658.689 118.266C658.996 118.643 659.185 119.042 659.285 119.384L647.355 122.86C648.071 125.316 649.684 127.234 651.835 128.415L657.813 117.522ZM659.341 119.591C659.432 119.95 659.466 120.372 659.404 120.813C659.342 121.246 659.207 121.573 659.096 121.775L648.203 115.797C647.085 117.834 646.68 120.221 647.299 122.654L659.341 119.591ZM659.096 121.775L678.522 86.3757L667.629 80.3977L648.203 115.797L659.096 121.775ZM678.522 86.3757C678.439 86.5279 678.247 86.8202 677.89 87.1252C677.519 87.4425 677.074 87.6827 676.607 87.8187L673.131 75.8888C670.537 76.6447 668.723 78.4039 667.629 80.3977L678.522 86.3757ZM676.607 87.8187C676.264 87.9185 675.827 87.9734 675.344 87.9168C674.866 87.8607 674.492 87.7129 674.245 87.5778L680.223 76.6844C678.072 75.5036 675.587 75.1732 673.131 75.8888L676.607 87.8187ZM674.245 87.5778C673.924 87.4016 673.538 87.1001 673.211 86.6482C672.889 86.2015 672.745 85.775 672.689 85.4945L684.872 83.0502C684.332 80.3572 682.73 78.06 680.223 76.6844L674.245 87.5778ZM672.631 85.156L678.786 127.994L691.086 126.227L684.93 83.3887L672.631 85.156ZM690.383 130.099L706.078 101.497L695.185 95.5195L679.489 124.121L690.383 130.099ZM706.078 101.497C705.971 101.692 705.747 102.022 705.348 102.347C704.935 102.684 704.464 102.91 704.009 103.025L700.946 90.9829C698.276 91.662 696.342 93.4098 695.185 95.5195L706.078 101.497ZM704.215 102.969C703.873 103.069 703.435 103.124 702.952 103.067C702.475 103.011 702.1 102.863 701.854 102.728L707.831 91.8348C705.68 90.6541 703.196 90.3237 700.74 91.0393L704.215 102.969ZM701.854 102.728C701.659 102.621 701.329 102.397 701.004 101.998C700.667 101.585 700.441 101.114 700.326 100.659L712.368 97.5962C711.689 94.9259 709.941 92.9926 707.831 91.8348L701.854 102.728ZM700.382 100.865C700.246 100.399 700.209 99.8941 700.278 99.4105C700.343 98.9457 700.487 98.6272 700.57 98.475L711.464 104.453C712.558 102.459 713.068 99.9841 712.312 97.3896L700.382 100.865ZM700.57 98.475L681.145 133.874L692.038 139.852L711.464 104.453L700.57 98.475ZM681.145 133.874C681.255 133.673 681.458 133.383 681.791 133.099C682.129 132.809 682.504 132.61 682.855 132.495L686.74 144.298C689.124 143.513 690.92 141.89 692.038 139.852L681.145 133.874ZM682.855 132.495C683.302 132.348 683.82 132.285 684.349 132.347C684.861 132.407 685.226 132.565 685.421 132.672L679.444 143.565C681.553 144.723 684.123 145.159 686.74 144.298L682.855 132.495ZM685.421 132.672C685.61 132.775 685.744 132.873 685.827 132.941C685.91 133.008 685.952 133.053 685.955 133.056L676.839 141.5C677.52 142.236 678.378 142.981 679.444 143.565L685.421 132.672ZM686.372 133.557C686.649 133.928 686.895 134.441 686.992 135.045L674.723 137.014C674.964 138.514 675.569 139.86 676.422 141L686.372 133.557ZM687.007 135.146L680.852 92.3083L668.552 94.0756L674.708 136.913L687.007 135.146ZM669.256 90.203L653.589 118.752L664.482 124.73L680.149 96.1809L669.256 90.203ZM653.589 118.752C653.724 118.506 653.96 118.18 654.333 117.876C654.71 117.569 655.109 117.381 655.451 117.281L658.927 129.211C661.383 128.495 663.301 126.882 664.482 124.73L653.589 118.752ZM655.247 117.344C655.693 117.197 656.212 117.135 656.74 117.197C657.252 117.257 657.618 117.415 657.813 117.522L651.835 128.415C653.945 129.573 656.514 130.009 659.132 129.147L655.247 117.344Z" fill="#0B0D0C" mask="url(#path-19-outside-10_355_199)"/>
</svg>
